<?xml version="1.0" encoding="UTF-8"?><svg id="Layer_1" xmlns="http://www.w3.org/2000/svg" viewBox="0 0 139.69 139.69"><defs><style>.cls-1{fill:#f9f8ee;}.cls-1,.cls-2{stroke-width:0px;}.cls-2{fill:#ea005f;}</style></defs><path class="cls-2" d="m139.69,69.85c0,38.57-31.27,69.84-69.84,69.84S0,108.42,0,69.85,31.27,0,69.85,0s69.84,31.27,69.84,69.85Z"/><path class="cls-1" d="m75.54,47.34c-.22-.06-.44-.11-.59-.15.41.11.79.22,1.17.34,0,0,0,0,0,0-.15-.04-.36-.12-.58-.18Z"/><polygon class="cls-1" points="47.8 76.05 47.8 76.05 47.82 76.19 47.82 76.2 47.8 76.05"/><polygon class="cls-1" points="47.8 76.05 47.8 76.05 47.8 76.05 47.8 76.05"/><path class="cls-1" d="m48.22,70.9c0,.11,0,.22,0,.3,0-.1,0-.2,0-.3Z"/><path class="cls-1" d="m84.23,94.57c.08-.31.16-.63.25-.96-.06.24-.15.6-.25.96Z"/><path class="cls-1" d="m84.19,94.73c.01-.05.03-.11.04-.16-.01.05-.03.11-.04.16Z"/><path class="cls-1" d="m102.77,98.98l-.04-.26c-.04-.11-.07-.21-.14-.34-.57-1.09-1.14-2.18-1.71-3.26-.36-.7-.73-1.4-1.08-2.1-.71-1.39-1.4-2.75-2.06-4.08-.14-.31-.41-.93-.54-1.24-.82-1.65-1.83-3.56-2.81-5.35.48-.84.89-1.66,1.27-2.5.62-1.41,1.13-2.87,1.53-4.59.02,0,.09.02.26-.84.27-1.3.45-2.67.53-4.03.02-.34.04-.68.04-1.02,0-.34.01-.68,0-1.01,0-.33-.02-.66-.03-.99-.02-.33-.05-.65-.07-.96-.2-2.54-.75-4.69-1.1-5.97-.25-.77-.38-1.61-1.31-3.61.1.22.21.45.31.67.18.41.34.82.51,1.23.02,0,.07-.03.07-.03-.62-1.67-1.51-3.48-2.59-5.17-1.08-1.69-2.35-3.26-3.6-4.54,0,0,.04-.04.05-.05-.41-.43-.85-.83-1.3-1.24-.3-.34-.07-.17.49.31.57.48,1.43,1.34,2.36,2.39.92,1.07,1.87,2.37,2.67,3.68.81,1.3,1.44,2.63,1.89,3.66.02,0,.07-.03.09-.04-.23-.56-.5-1.1-.75-1.65l.05-.02c.15.3.29.61.43.91.14.3.28.6.4.91.12.3.24.61.36.9.11.3.21.61.32.91.11.3.2.6.29.91.09.3.18.6.26.91.14.61.31,1.21.41,1.83.27,1.42.44,2.87.51,4.37,0-.12,0-.23,0-.32.02,0,.04,0,.02-.38.11,1.68.08,3.53-.16,5.36-.24,2.03-.72,4.02-1.28,5.75-.14.43-.11.44.06.02.16-.42.49-1.28.82-2.61.31-1.33.49-2.46.62-3.6.12-1.13.18-2.28.15-3.65h.05c.07,1.83-.2,4.57-.57,6.36-.08.45.03,0,.14-.44.1-.45.19-.9.13-.44-.15.91-.36,1.8-.57,2.7.36-1.33.68-2.91.84-4.51.17-1.6.18-3.21.14-4.59-.04-.92-.09-1.84-.05-1.84-.28-2.29-.77-4.31-1.33-6.07-.57-1.76-1.19-3.26-1.8-4.51-.18-.43-.87-1.64-1.8-2.98-.49-.71-1.07-1.44-1.65-2.12l.38.46c-.22-.28-.46-.55-.69-.81l.13.15c-.06-.07-.13-.15-.19-.22-.19-.22-.39-.44-.59-.65l.21.23c-.25-.27-.5-.53-.73-.76l.46.47c-2.22-2.38-4.86-4.43-7.78-5.96-3.56-1.88-7.54-3-11.55-3.28-2-.14-4.01-.08-5.99.18-1.97.26-3.91.73-5.76,1.38-3.71,1.29-7.08,3.3-9.9,5.76-.72.6-2.09,1.88-2.71,2.6-1.25,1.4-2.44,3.02-3.47,4.8-1.03,1.78-1.89,3.73-2.52,5.75-.64,2.02-1.05,4.11-1.24,6.16-.18,2.05-.13,4.05.08,5.92.21,1.87.64,3.47,1.02,4.57.18.56.37.99.48,1.29.13.29.2.45.2.45.17.43.37.86.49,1.06.12.2.16.19.01-.25-.32-.87-.81-2.41-1.1-3.76-.15-.68-.25-1.3-.31-1.76-.07-.46-.07-.75-.05-.75.01,0,.05.22.1.56.07.34.14.79.23,1.24.06-.01.25.65.52,1.41.07.19.13.39.2.58.07.19.14.38.21.56.13.36.25.68.32.9.16.43.76,1.9,1.5,3.3.34.66.72,1.29,1.05,1.81-.09.18-.21.41-.37.71-.16.3-.14.31-.11.32t-.05-.02c-.11.32-.48.89-.61,1.2t-.05-.02c-.27.62-.63,1.19-.93,1.8t-.05-.02c-.16.3-.32.59-.34.58t-.05-.02c-.18.29-.45.9-.5.88t.05.02c-.63,1.19-1.13,2.07-1.63,2.95-.47.81-.97,1.71-1.47,2.64-.76,1.44-1.55,2.93-2.34,4.42-.06.11-.09.19-.12.28-.04.1-.03.15-.04.22v.19c-.02.07-.02.13,0,.15l.16.39.08.19s.03.04.07.08c.06.05.1.08.13.11.13.1.26.14.43.17.22.07.63-.07.36-.11.14,0,.32-.03.52-.09.11-.04.22-.08.33-.13l.36-.18c1.02-.57.54-.38,1.55-1l.74-.48.5-.33.84-.57c.56-.38,1.12-.76,1.68-1.13l3.36-2.26c2.24-1.5,4.47-3.01,6.69-4.54-1.13.73-2,1.25-3.1,2.02-.01-.02-.04-.06-.32.12-1.69,1.11-3.61,2.48-4.51,2.96-.29.17-.62.29-1.46.85l.84-.56s-.04-.06-.04-.06c-1.13.73-2.55,1.65-3.7,2.36,0,0-.03-.04-.04-.06l-.57.37c-.66.22,2.46-1.78,3.84-2.75-.01-.02-.04-.06-.06-.09l-.56.38-.03-.04c1.29-.87,2.42-1.63,3.63-2.45-.01-.02-.03-.04-.31.15,1.12-.76,2.53-1.68,3.62-2.47.26-.21-.06-.09-.91.46-.84.57-1.4.94-2.23,1.51l-.03-.04c.56-.38,1.41-.92,1.95-1.32.26-.21-.6.31-.34.1.28-.19.56-.38.82-.59-.84.57-1.94,1.34-2.79,1.89-.29.17-.59.33-.62.29-1.38.96-2.54,1.65-3.45,2.11-.23.11-1.06.66-1.81,1.17-.51.32-1.02.64-1.53.95l-.22.13-.13.07-.25.14c-.16.08-.31.19-.48.2.06-.18.19-.35.27-.51l.16-.28.09-.15.29-.52c.38-.69.76-1.38,1.14-2.07.75-1.37,1.5-2.7,2.24-3.98.18-.29.54-.86.73-1.14,1.34-2.34,2.9-5.33,4.12-7.73.61-1.2.84-2.23.84-2.23.11-.32.18-.67-.02-.39-.34.58-1.13,2.07-1.22,2.02-.02-.01.14-.31.29-.61-.09-.05.2-1.04.36-1.33.11-.31.86-2.03,1.02-2.45-.02-.28-.07-.23-.13.02l.03-.13c-.41.47-1.45,1.96-1.94,2.78-.36.57-.11-.06-.18-.1-.29.61-.52.87-.82,1.48,0,0-.02.02-.05.07-.03.05-.07.12-.12.21-.1.18-.24.43-.39.7-.3.56-.66,1.22-.91,1.66,0,0-.02.05-.08.17-.06-.12-.13-.25-.19-.38-.46-.96-.96-2.11-1.36-3.24-.41-1.13-.72-2.26-.93-3.11-.4-1.72.12-.03.2-.05-.24-.84-.37-1.49-.48-2.14-.11-.65-.2-1.3-.31-2.17,0,0,0-.08-.01-.23-.01-.15-.03-.36-.05-.63-.01-.27-.03-.58-.04-.94-.01-.35,0-.74-.02-1.15,0-1.64.2-3.61.45-4.89,0,0,.02-.22.14-.75.11-.54.28-1.39.68-2.65.26-.84.25-.84.23-.85t.05.02c.23-.85.97-2.44,1.35-3.23t.05.02c.74-1.59,1.72-3.05,2.76-4.45t.04.03c.27-.34.55-.68.75-.94.22-.24.37-.4.38-.4t.04.03c.57-.66,1.79-1.91,1.83-1.87t-.04-.04c1.27-1.2,2.48-2.13,3.66-2.92,1.18-.79,2.33-1.41,3.51-1.97,2.01-.93,4.3-1.69,6.74-2.15.47.94.87,1.77,1.43,2.77-.02.01-.07.04.1.35.19.37.39.75.59,1.12-.08,0-.15.01-.22.02-.63.04-.02-.13-.03-.2-.26.04-.47.08-.67.11-.35-.67-.71-1.33-1.05-1.91-.19-.3-.09.05.38,1,.18.35.34.65.5.94-.01,0-.03,0-.04,0-.12-.22-.23-.43-.34-.61-.19-.3.26.66.08.36-.17-.31-.33-.63-.52-.93.19.37.42.78.64,1.2-.17.03-.34.06-.55.12,0,0-.12.02-.31.06-.19.04-.45.1-.74.18-.29.09-.6.18-.9.27-.3.09-.58.21-.8.29,0,0-.3.13-1.17.52-.29.13-.28.15-.27.18t-.02-.05c-.26.19-.86.42-1.12.61t-.02-.05c-.26.18-.54.34-.82.5-.27.17-.54.34-.8.52t-.03-.04c-.27.17-.52.37-.54.34t-.03-.04c-.28.16-.76.58-.79.55t.03.04c-1.02.78-1.72,1.43-2.43,2.08-.93.88-1.88,1.97-2.72,3.19-.84,1.22-1.58,2.55-2.17,3.86-.13.29-.22.6-.04.33-.13.29-.27.58-.38.87-.24.59-.05.32-.28.91-1.64,4.77-2.19,9.94-1.2,14.89h0c-.2-1.24-.26-2.18-.37-3.43.03,0,.08,0,.06-.32-.08-1.88.04-4.08.28-4.99.06-.31.19-.6.34-1.52-.06.31-.1.61-.15.92.03,0,.08.01.08.01.2-1.23.57-2.74.97-3.91,0,0,.05.02.07.02.06-.2.11-.4.19-.59.09-.13.09-.03.03.22-.05.25-.16.65-.29,1.11-.23.93-.5,2.13-.6,2.89.03,0,.08.01.1.02.03-.2.06-.4.1-.6h.05c-.31,1.71-.44,3.17-.46,4.87,0-.31.02-.7.02-.92.03,0,.05,0,.06-.3-.02.61-.05,1.29-.04,1.98.01.68.06,1.37.15,1.97.06.3.09,0,.06-.92-.05-.91-.06-1.51-.03-2.42h.05c-.02.61-.05,1.51.02,2.12.04.3.05-.61.09-.31.01.3.03.6.07.9-.03-.45-.06-.98-.07-1.5-.02-.53.01-1.05.03-1.5.03-.3.09-.6.14-.59.03-.75.13-1.42.23-2.01.13-.59.25-1.1.41-1.52.08-.2.25-1.02.44-1.77.73-2.4,1.77-4.78,3.17-6.89,1.4-2.13,3.13-3.99,5.02-5.36.12-.08.31-.2.49-.32.19-.11.38-.22.5-.3.97-.64,2.09-1.29,3.27-1.84,1.18-.54,2.41-.98,3.52-1.26.28-.08.54-.14.77-.22.09-.03.16-.06.24-.09.03.06.06.12.09.17.14.32.29.65.24.67.85,1.55,1.44,2.84,1.83,3.84.04.1.14.32.28.59-2.31,4.17-4.63,8.55-6.88,12.65-.06,0-.11,0-.16-.01-2.33-.08-5.25-.05-7.58,0-1.17.03-2.04.31-2.04.31-.29.05-.58.15-.29.21.58.03,2.04.03,2.04.13,0,.03-.29.03-.58.03,0,.1-.87.31-1.17.31-.29.05-2.04.21-2.33.26-.88.08,1.75.46,2.92.54.58.05,0,.13,0,.21.58-.03.88.05,1.46.03,0,.03,1.75.05,2.62.05,0,0,.29-.03,1.17-.03.29,0,.29-.03.29-.05v.05c.29-.05.88,0,1.17-.03v.05c.46-.04.91-.02,1.37-.02-.25.45-.51.91-.76,1.36-.19.31-.58.93-.77,1.24-1.43,2.54-3.11,5.77-4.43,8.37-.66,1.3-.92,2.4-.92,2.4-.13.35-.21.72.01.42.36-.63,1.22-2.24,1.31-2.19.02.01-.15.33-.32.66.09.05-.24,1.11-.41,1.43-.13.35-1.01,2.35-1.14,2.7-.44,1,1.43-1.72,2.18-2.97.39-.62.11.06.18.1.32-.66.56-.94.88-1.6.02.01,1.07-1.91,1.58-2.87,0,0,.15-.33.66-1.3.17-.32.15-.33.13-.35t.05.02c.13-.35.51-.97.66-1.3t.05.02c.3-.67.68-1.29,1-1.94t.05.02c.17-.32.34-.64.36-.63t.05.02c.19-.31.49-.98.53-.95t-.05-.02c.52-.99.96-1.78,1.38-2.53.98,0,1.75.03,2.52.05,2.33.1,5.25.05,7.87,0,.29,0,.58-.05.29-.1h.88c.58,0,.29-.08.87-.08.29,0,.58-.01.86-.02.47.93.93,1.85,1.37,2.75.14.32.43.97.57,1.3,1.26,2.54,2.93,5.65,4.3,8.13.69,1.24,1.43,2.05,1.43,2.05.21.29.47.55.35.22-.31-.64-1.14-2.2-1.05-2.25.02-.01.19.3.35.61.09-.05.77.79.93,1.11.21.29,1.34,2.09,1.55,2.38.56.9-.59-2.09-1.18-3.38-.29-.65.11-.06.18-.1-.35-.61-.45-.96-.81-1.58.02-.01-.95-1.9-1.44-2.84,0,0-.19-.3-.68-1.24-.17-.31-.19-.3-.21-.29t.05-.02c-.21-.29-.5-.94-.69-1.24t.05-.02c-.38-.6-.66-1.25-1.02-1.86t.05-.02c-.17-.31-.33-.63-.31-.64t.05-.02c-.14-.33-.52-.93-.47-.95t-.05.02c-.43-.82-.78-1.51-1.11-2.15,3.64-.03,7.28.03,10.91-.03-1.17-.03-2.04-.08-3.21-.05,0-.03,0-.08-.29-.08-1.75-.03-3.79.03-4.67-.08-.29-.03-.58-.1-1.46-.1h.88v-.08c-.73-.02-1.58-.03-2.4-.05-.04-.09-.09-.18-.13-.26.79-.01,1.65-.01,2.23-.02v-.1h-.58v-.05h3.79s0-.05-.29-.05c1.17,0,2.63.03,3.79-.03.29-.03,0-.1-.87-.13h-2.33v-.05c.58,0,1.46.03,2.04,0,.29-.03-.58-.08-.29-.1.29,0,.58,0,.88-.03-.88,0-2.04.03-2.92,0-.29-.03-.58-.05-.58-.1-1.46.03-2.62-.05-3.5-.18-.21-.04-1.02-.03-1.79-.03-1.2-2.43-2.76-5.27-4.18-7.85-.17-.31-.38-.6-.26-.26-.17-.31-.33-.63-.5-.94-.33-.63-.23-.28-.56-.9-.56-1.01-1.11-2.02-1.65-3.03.99-1.91,2-3.82,3.02-5.72.15.03.3.06.46.09.51.13,1.02.25,1.44.41.28.12.55.23.53.28,1.41.47,2.45,1.09,3.15,1.64.18.13.93.59,1.59,1.03,1.99,1.46,3.79,3.29,5.24,5.33,1.48,2.07,2.55,4.37,3.22,6.63.07.29.19.87.25,1.15.28,1.14.54,2.43.71,3.73.19,1.3.24,2.62.26,3.8,0,1.17.19,2.08.19,2.08.02.3.09.61.17.32.1-.59.17-2.09.27-2.08.03,0,.02.3,0,.6.11,0,.26.92.22,1.23.01.15.01.69-.01,1.22-.03.53-.06,1.05-.07,1.23v-.02s0,0,0,0c.02.27.07.22.13,0v.05c.25-.52.69-2.14.79-3.02.09-.62.13,0,.2.01.02-.63.11-.94.09-1.57,0,0,.02-.12.02-.31,0-.19,0-.46,0-.75,0-.59-.04-1.3-.07-1.77,0,0-.01-.08-.03-.27-.03-.2-.07-.51-.12-.98-.03-.31-.07-.31-.09-.31t.05,0c-.1-.3-.15-.94-.23-1.24t.05,0c-.18-.61-.25-1.24-.44-1.84t.05-.01c-.08-.31-.16-.61-.14-.62t.05-.01c-.07-.31-.3-.91-.25-.92t-.05.02c-.4-1.2-.72-2.1-1.1-2.98-.48-1.18-1.15-2.46-1.98-3.69-.83-1.23-1.8-2.4-2.82-3.42-.21-.24-.49-.42-.29-.16l-.69-.67c-.47-.43-.29-.16-.76-.58-.98-.81-2.02-1.55-3.11-2.2-1.09-.65-2.24-1.21-3.42-1.68-.93-.37-1.88-.66-2.86-.88.71-1.33,1.41-2.67,2.11-4.01,1.48.36,2.93.84,4.29,1.43.79.35,1.6.7.83.27.4.19.79.38,1.17.59.38.21.77.41,1.14.65.75.45.94.56,1.13.67.19.11.4.2,1.1.72,2.85,2.05,5.29,4.66,7.16,7.64,1.87,2.98,3.15,6.32,3.76,9.78.61,3.46.58,7.04-.13,10.48-.55,2.77-1.56,5.45-2.93,7.92-.44-.82-.88-1.61-1.29-2.34-.66-1.18-1.38-1.94-1.38-1.94-.2-.27-.45-.52-.34-.2.29.61,1.09,2.09,1,2.14-.02.01-.18-.28-.34-.58-.09.05-.75-.75-.91-1.04-.2-.27-1.28-1.97-1.49-2.25v-.02s-.02-.05-.02-.05c0,0,0,0,0,0-.02-.29-.07-.25-.13,0h0s.03.13.03.13c.16.6.82,2.29,1.22,3.16.27.62-.11.06-.18.1.34.58.43.92.77,1.5,0,0,0,.03.03.08.03.05.06.13.11.22.09.18.22.44.36.72.29.56.64,1.23.88,1.68,0,0,.18.29.66,1.18.16.3.18.29.2.27t-.05.02c.2.27.48.89.66,1.18t-.05.02c.36.57.63,1.19.97,1.77t-.05.02c.16.3.32.59.29.61t-.05.02c.14.31.5.88.45.9t.05-.02c.63,1.19,1.09,2.09,1.54,3,.41.85.88,1.76,1.37,2.7.23.43.47.88.71,1.32,0,0,.01,0,.02.01.01.01.03.03.05.06.03.03.03.05.02.06,0,0,.03.08.13.2l-.12-.07c-.08-.05,0,.09-.13.01-.03-.02-.05-.02-.11-.06l-.04-.02-.1-.06-.21-.13-.85-.53c-.56-.37-1.13-.73-1.69-1.09-1.12-.74-2.24-1.49-3.35-2.25-2.1-1.42-4.19-2.86-6.32-4.24.17-.67.34-1.35.5-2.02-.19.72-.37,1.36-.55,1.99-.12-.08-.24-.16-.36-.23.12.08.24.17.35.25-.27.98-.52,1.92-.8,3.03-.02,0-.07-.02-.19.44-.73,2.75-1.51,5.97-1.96,7.33-.14.45-.34.89-.69,2.27l.35-1.38s-.07-.02-.07-.02c-.5,1.83-1.11,4.12-1.61,5.95,0,0-.05-.01-.07-.02l-.24.92c-.41.87.91-4.17,1.48-6.47-.02,0-.07-.02-.1-.03l-.24.92h-.05c.61-2.39,1.13-4.42,1.72-6.7-.07.27-.14.53-.19.72-.02,0-.05-.01-.17.45.47-1.84,1.09-4.13,1.51-5.97.09-.47-.1-.03-.48,1.34-.35,1.38-.59,2.29-.94,3.67h-.05c.24-.93.61-2.3.83-3.23.09-.47-.31.9-.22.43.12-.46.24-.92.33-1.39-.35,1.38-.8,3.22-1.18,4.59-.14.45-.29.91-.34.89-.56,2.3-1.11,4.12-1.59,5.46-.13.34-.49,1.75-.8,3.02-.66,2.47-1.34,4.99-2.01,7.5h-.32s-.96-.01-.96-.01h-.83s-.25-.01-.25-.01c.02-1.71.03-3.41.05-5.08.02-1.95.05-3.86.1-5.71.03-.47.08-1.42.1-1.9.08-3.79.05-8.53,0-12.32-.03-1.9-.31-3.32-.31-3.32-.05-.47-.15-.95-.21-.47-.03.95-.03,3.32-.13,3.32-.03,0-.03-.47-.03-.95-.1,0-.31-1.42-.31-1.9-.05-.47-.21-3.32-.26-3.79-.08-1.42-.46,2.84-.54,4.74-.05.95-.13,0-.21,0,.03.95-.05,1.42-.03,2.37,0,0,0,.04,0,.12,0,.08,0,.2,0,.34,0,.29-.01.69-.02,1.13,0,.89-.01,1.95-.02,2.67,0,0,.03.47.03,1.9,0,.47.03.47.05.47h-.05c.05.47,0,1.42.03,1.9h-.05c.05.95,0,1.89.03,2.84h-.05c0,.47,0,.95-.03.95h-.05c-.03.47.03,1.42-.03,1.42h.05c0,1.9-.03,3.32-.05,4.74-.03,1.11-.05,2.31-.05,3.55,0,1.5,0,3.05,0,4.62-.53-.02-1.05-.03-1.66-.01,0-.03,0-.08-.25-.08-.42,0-.85,0-1.28,0-.11,0-.21,0-.31,0,0-.23,0-.49,0-.78.31,0,.63,0,.95,0,.57,0,1.14,0,1.65-.03.25-.03,0-.1-.76-.13h-1.84s0-.03,0-.05c.21,0,.45,0,.69,0,.32,0,.63,0,.89,0,.25-.03-.51-.08-.25-.1.25,0,.51,0,.76-.03-.38,0-.83,0-1.27,0-.22,0-.43,0-.64,0-.06,0-.12,0-.18,0,0-.82.02-1.75.02-2.38,0,0-.02-.23-.02-.86.01-.43.02-1.06.02-1.45,0,0-.02-.21-.03-.83h.03c-.03-.36-.03-.73-.02-1.09h.02c-.01-.09-.02-.19-.02-.28,0-.14,0-.28,0-.43,0-.1,0-.19,0-.29h.04c0-.35,0-.7.03-.7h.05s0,0,0-.01c0-.06,0-.14,0-.22,0-.11,0-.23,0-.35,0-.04,0-.06.02-.06h-.02c0-.22,0-.4.02-.4h-.05c0-.66.03-1.2.05-1.73.07-1.12.07-2.41.05-3.72.02-1.45.01-3,0-4.54.01-.78.02-1.6.01-2.42,0-1.22-.01-2.5-.05-3.6-.02-.55-.14-1-.22-1.26-.07-4.94.03-9.88-.04-14.81-.03,1.4-.08,2.44-.05,3.84-.03,0-.08,0-.08.35-.03,2.09.03,4.53-.08,5.58-.03.35-.1.7-.1,1.74v-1.05h-.08c-.02,1.4-.05,3.14-.08,4.53h-.08v.24c-.05-.12-.1-.27-.13-.41-.04-1.12-.03-2.95-.05-4.02h-.1v.7h-.05v-4.53s-.05,0-.05.35c0-1.4.03-3.14-.03-4.53-.03-.35-.1,0-.13,1.05v2.79h-.05c0-.7.03-1.74,0-2.44-.03-.35-.08.7-.1.35,0-.35,0-.7-.03-1.05,0,1.05.03,2.44,0,3.49-.03.35-.05.7-.1.7.03,1.74-.05,3.14-.18,4.18-.04.26-.03,1.32-.03,2.27,0,.35-.01.71-.02,1.06-.04-.05-.08-.17-.12-.17.03.43-.05.64-.03,1.07-.03,0-.05,1.28-.05,1.92,0,0,0,.04,0,.13,0,.31,0,.62,0,.85,0,0,.02.24.03.94h-.03c.05.43,0,.85.03,1.28h-.05c0,.21,0,.43-.03.43h-.05c-.03.21.03.64-.03.64h.05c0,.38,0,.72-.01,1.04h-.01c-.01.13,0,.33,0,.49,0,.08,0,.17,0,.25,0,.01,0,.02-.01.02h.01c0,.11,0,.22-.01.33-.07,1.1-.07,2.38-.05,3.67-.03,1.6,0,3.38.04,5.04,0,0,0,0,0,.01,0,0,0,0,0,0-.04.94-.05,2.02-.05,3.08,0,.42,0,.84,0,1.27,0,.75,0,1.51.01,2.24,0,.34,0,.67.01.99,0,0,.01.02.02.04h0s0,.02-.02.03v.02s-.02,0-.02,0h-.05s-.11.02-.11.02c-.29.03-.56.07-.77.1-.44.07-.7.14-.7.14-.35.05-.7.15-.35.21.35,0,.96.02,1.48.04.61.02.73.04.78.09,0,.01-.05.02-.13.02-.11,0-.25,0-.39,0,0,.1-1.05.31-1.39.31-.23.03-1.19.11-1.94.17.01-2.01.03-4.02.04-5.99.02-1.95.05-3.86.1-5.71.03-.47.08-1.42.1-1.9.08-3.79.05-8.53,0-12.32-.03-1.9-.31-3.32-.31-3.32-.05-.47-.15-.95-.21-.47-.03.95-.03,3.32-.13,3.32-.03,0-.03-.47-.03-.95-.1,0-.31-1.42-.31-1.9-.05-.47-.21-3.32-.26-3.79-.08-1.42-.46,2.84-.54,4.74-.05.95-.13,0-.21,0,.03.95-.05,1.42-.03,2.37,0,0,0,.04,0,.12,0,.08,0,.2,0,.34,0,.29-.01.69-.02,1.13,0,.89-.01,1.95-.02,2.67,0,0,.03.47.03,1.9,0,.47.03.47.05.47h-.05c.05.47,0,1.42.03,1.9h-.05c.05.95,0,1.89.03,2.84h-.05c0,.47,0,.95-.03.95h-.05c-.03.47.03,1.42-.03,1.42h.05c0,1.9-.03,3.32-.05,4.74-.03,1.11-.05,2.31-.05,3.55,0,.62,0,1.25,0,1.89,0,.26,0,.53,0,.79,0,0,0,0,0,0,0,0,0,0,0,0h-.79c-.32.01-.64.01-.96.02h-.06s0,0,0,0h0s0,0,0,0h-.02s-.02-.02-.02-.02c-.06-.22-.12-.44-.18-.66-.12-.46-.29-.9-.22-.43-.12-.46-.24-.92-.35-1.38-.24-.92-.19-.44-.43-1.36-2.01-7.31-3.77-14.69-5.74-22.02.45,1.84.75,3.23,1.25,5.06-.02,0-.07.02.04.48.68,2.76,1.56,5.96,1.81,7.36.09.47.14.94.49,2.32l-.35-1.38s-.07.02-.07.02c.45,1.84,1.01,4.15,1.46,5.99,0,0-.05.01-.07.02l.24.92c.06.96-1.21-4.09-1.83-6.38-.02,0-.07.02-.1.03l.24.92h-.05c-.68-2.64-1.25-4.87-1.93-7.49.13.49.3,1.16.39,1.53-.02,0-.05.01.07.47-.47-1.84-1.04-4.14-1.56-5.96-.14-.45-.1.03.23,1.41.35,1.38.59,2.29.94,3.67h-.05c-.24-.91-.57-2.29-.83-3.2-.14-.45.16.94.02.49-.12-.46-.24-.92-.38-1.37.35,1.38.85,3.21,1.18,4.59.09.47.19.93.14.94.61,2.29,1.01,4.14,1.24,5.55.05.36.42,1.75.74,3,.32,1.31.64,2.63.96,3.95.4,1.61.81,3.23,1.21,4.85,1.78,0,3.56.02,5.33.02,0-.15,0-.29,0-.44.83.11,1.95.23,2.64.27.7.05,0,.13,0,.21.35-.01.61,0,.87.01.22,0,.44.01.67.02.26,0,.53,0,.84,0,0,0,.06,0,.17,0,.11,0,.26,0,.45,0,0-.02,0-.05,0-.07h1.86c.55,0,1.1,0,1.64-.01,0,.1,0,.2,0,.3,1.95-.01,3.91-.02,5.84-.03.2-.79.39-1.58.59-2.36.12-.46.19-.93.02-.48.12-.46.24-.92.35-1.38.24-.92.04-.48.28-1.4,1.6-6.7,3.4-13.34,5.08-20.02.92.65,1.66,1.19,2.65,1.83-.01.02-.04.06.24.25,1.66,1.15,3.64,2.43,4.42,3.08.27.21.5.46,1.34,1.02l-.84-.56s-.04.06-.04.06c1.1.77,2.49,1.73,3.6,2.48,0,0-.03.04-.04.06l.56.37c.46.52-2.62-1.52-4.03-2.45-.01.02-.04.06-.06.09l.56.38-.03.04c-1.68-1.13-3.07-2.07-4.75-3.2.28.19.84.57,1.12.76-.01.02-.03.04.25.23-1.12-.76-2.5-1.72-3.64-2.43-.29-.17-.06.08.77.67.84.57,1.4.94,2.23,1.51l-.03.04c-.56-.38-1.38-.97-1.95-1.32-.29-.17.52.44.22.27-.28-.19-.56-.38-.85-.55.84.57,1.97,1.3,2.79,1.89.26.21.53.42.5.46,1.41.92,2.49,1.74,3.26,2.41.19.18,1.07.75,1.85,1.26.48.33.96.66,1.45.98l.61.4.7.44c.47.29.94.57,1.37.79.22.11.41.18.59.23.16.04.32.07.45.08.13,0,.25,0,.36,0,.12-.02.2-.02.35-.11.08-.08.06-.1.07-.15v-.16s.03-.31.03-.31c0-.12.04-.17,0-.37Zm-60.65-2.78c-.1.07-.19.13-.28.19.09-.06.19-.12.28-.19Zm7.74-32.18c.07-.27.14-.52.22-.74-.07.25-.15.49-.22.74Zm17.72-17.19c.08.14.15.28.22.42-.23.02-.51.06-.78.09-.05-.09-.09-.18-.14-.27.22-.1.51-.2.7-.25Zm-.7.25c.05.09.09.18.14.27-.02,0-.03,0-.05,0-.04-.08-.09-.17-.13-.25.01,0,.03-.01.04-.02Zm-.18.09c.03.07.07.13.11.2,0,0,0,0-.01,0-.01,0-.03,0-.04,0-.03-.06-.06-.12-.1-.18.01,0,.03-.02.04-.03Zm-.73.27s.29-.08.58-.14c0,0,0-.01.01-.02.02.04.04.08.06.12-.36.06-.64.09-.65.04Zm1.3.38s-.05.02.12.34c-.08-.14-.15-.29-.23-.44.02,0,.03-.01.05-.02,0,.01.01.02.02.04,0-.01-.01-.02-.02-.04,0,0,0,0,0,0,.35-.12.56-.23.56-.23.04-.01.08-.03.12-.04.56,1.06,1.06,2.02,1.29,2.58.14.32.24.67.74,1.61-.17-.31-.33-.63-.5-.94-.02.01-.07.04-.07.04.18.36.38.74.58,1.14-.06.1-.11.21-.17.32-.2-.37-.38-.71-.54-.99-.02.01-.07.04-.09.05l.33.63-.05.02c-.78-1.47-1.46-2.76-2.2-4.15.02.03.03.06.04.08Zm2.51,6.24c.04.07.08.15.12.22,0,0,0,.01,0,.02,0,0-.05-.02-.07-.04l-.34.64c-.19.22-.03-.18.3-.85Zm.48-.95c.05-.1.1-.2.15-.3.05.09.09.19.14.28-.05.09-.1.19-.16.28-.05-.09-.09-.17-.14-.26Zm5.7,12.94c-3.82-.06-7.72-.06-11.34-.17,1.26-2.28,2.62-4.94,3.86-7.37.17-.32.3-.67.08-.37.17-.32.34-.64.51-.97.34-.64.1-.36.44-1,.22-.44.45-.88.68-1.32,1.87,3.72,3.89,7.53,5.77,11.2Zm-4.52-11.23s-.05.02-.07.04l.33.63c.09.39-.41-.48-1.02-1.59.05-.09.09-.18.14-.27.21.42.42.83.61,1.21Zm1.24-5.23c-.19.31-.43.6-.94,1.56.17-.32.34-.64.51-.97-.02-.01-.07-.04-.07-.04-.42.75-.89,1.62-1.35,2.46-.05-.1-.1-.19-.15-.29.38-.73.77-1.48,1.04-2.01-.02-.01-.07-.04-.09-.05l-.34.64-.05-.02c.69-1.31,1.31-2.47,1.95-3.68.2.03.4.06.62.11.05,0,.09.02.14.03-.51.95-.96,1.78-1.26,2.24Zm.83-3.55s.03,0,.05,0c-.04.08-.08.15-.13.24l-.05-.02c.04-.07.08-.14.12-.22Zm.18.1s.03,0,.05.01c-.1.19-.19.37-.29.55h0c.07-.14.18-.34.29-.55.04.01.08.02.15.04.2.04.4.08.6.13-.13.24-.26.48-.38.72-.26-.05-.51-.1-.76-.13.03-.07.07-.13.1-.2-.02-.01-.04-.02-.16.19,0,0,0,0,0,0,.13-.24.26-.49.4-.75Zm-.28.92c.22.05.42.08.61.12,0,.01-.01.03-.02.04-.11-.02-.21-.04-.3-.05-.2-.02.11.07.26.12,0,.01-.01.02-.02.03-.25-.05-.51-.1-.77-.12.03-.06.06-.11.09-.17.05,0,.09.02.14.03Zm2.33.61c-.44-.14-1.05-.31-1.58-.42,0-.01.01-.02.02-.04.14.03.28.06.41.09.36.1.73.18,1.17.31v.05Zm5.64,3.25c.18.13.36.25.5.36-.17-.12-.34-.24-.5-.36Zm-6.08-4.4c.48.11.93.27,1.37.41.43.14.82.31,1.17.45.34.15.62.3.82.41.28.15.53.36,1.36.79-.27-.16-.56-.29-.83-.43l-.03.07c1.11.57,2.43,1.41,3.4,2.18,0,0-.03.04-.05.06.17.12.32.26.49.38.18.27-.37-.16-1.17-.69-.8-.54-1.85-1.17-2.55-1.5-.01.02-.03.07-.05.09.18.09.37.18.54.28l-.02.04c-1.24-.67-2.37-1.16-3.64-1.55,0,.02,0,.04.18.11-.62-.21-1.32-.41-2.02-.56.13-.24.25-.48.38-.72.22.05.44.11.66.17Zm.4-2.33s-.07-.04-.24.29c-.3.55-.61,1.13-.91,1.7-.25-.05-.5-.11-.75-.15.04-.08.08-.16.12-.23-.04.08-.08.16-.12.23-.02,0-.03,0-.05,0,.57-1.06,1.19-2.22,1.67-3.21.15-.33-.09-.05-.62.91-.46.86-.78,1.47-1.21,2.28-.02,0-.03,0-.05,0,.33-.62.77-1.41,1.04-1.97.15-.33-.41.61-.26.27.17-.32.34-.64.49-.98-.42.79-.93,1.79-1.4,2.66-1.09-.17-2.2-.26-3.31-.25,1.2.04,2.11.16,3.27.32-.09.17-.19.34-.27.5-.07.11-.14.22-.2.32-.13-.01-.25-.03-.37-.03-.22-.01-.12.05.3.14-.08.11-.13.18-.16.17-.83,1.62-1.58,2.87-2.2,3.78-.06.08-.17.26-.3.5-.71-1.34-1.43-2.69-2.13-4.03.14-.06.2-.12,0-.14-.02,0-.05,0-.07,0-.08-.15-.16-.3-.23-.44.19-.06.67-.13,1.15-.23.53-.08,1.07-.14,1.22-.17.46-.04,0-.16-.74-.25-.6-.08-1.39-.1-2.01-.07-.75-1.42-1.5-2.83-2.26-4.24,1.38-.26,2.81-.42,4.26-.45,2.48-.08,5.01.2,7.42.78-.36.64-.7,1.26-1.08,2.01Z"/><path class="cls-1" d="m50.25,76.05l.02-.06s-.01.03-.02.05c0,0,0,0,0,.01,0,0,0,0,0,0Z"/><path class="cls-1" d="m49.78,91.91c-.39.26-.76.51-1.12.75,0,0,0,0,0,0,.28-.19.84-.57,1.12-.76Z"/><path class="cls-1" d="m55.75,93.94c-.03-.11-.06-.22-.08-.3.03.1.05.2.08.3Z"/><path class="cls-1" d="m73.94,45.79c.07-.12.13-.25.2-.37-.05.1-.12.23-.2.37Z"/><path class="cls-1" d="m98.75,69.19s0-.02,0-.03c0,.22,0,.44-.01.66,0-.21.01-.42.01-.63Z"/><path class="cls-1" d="m98.75,68.81c0,.12,0,.24,0,.36,0-.12,0-.24,0-.36Z"/><path class="cls-1" d="m98.73,69.82c0,.17-.01.34-.02.5,0-.17.02-.33.02-.5Z"/><path class="cls-1" d="m98.71,70.32c-.01.23-.02.45-.04.68.01-.19.02-.43.04-.68Z"/><path class="cls-1" d="m91.47,48.73l-.03-.03s.04.04.05.06l-.03-.03Z"/><path class="cls-1" d="m98.74,68.46c0,.12,0,.23,0,.35,0-.12,0-.23,0-.35Z"/><path class="cls-1" d="m92.4,49.77l-.12-.13c.06.07.12.14.18.21l-.06-.08Z"/><path class="cls-1" d="m98.72,67.7c0,.23.01.49.02.76,0-.26-.01-.51-.02-.76Z"/><path class="cls-1" d="m45.9,46.41c.01.06.02.11.03.15,0-.05-.02-.1-.03-.15Z"/><path class="cls-1" d="m43.35,38.77c.06.33.13.65.19.98.05.26.1.51.15.77.03.16.11.31.13.14l.09.48c.06.32.1.15.16.47.59,2.54.92,5.13,1.45,7.67-.09-.65-.13-1.13-.27-1.77.03,0,.08-.01.05-.17-.15-.97-.4-2.08-.38-2.58,0-.16.04-.34-.04-.82l.09.48s.08-.01.08-.01c-.09-.65-.21-1.45-.3-2.1,0,0,.05,0,.08-.01l-.06-.32c.12-.35.41,1.41.58,2.21.03,0,.08-.01.1-.02l-.06-.32h.05c.16.9.3,1.67.46,2.56-.03-.16-.07-.37-.09-.49.03,0,.05,0,.02-.17.11.64.23,1.45.4,2.08.05.16.1-.02.04-.5-.09-.48-.14-.8-.23-1.28h.05c.06.31.12.8.2,1.11.05.16.02-.33.07-.18.03.16.06.32.11.48-.09-.48-.23-1.12-.29-1.6,0-.16,0-.33.04-.34-.17-.8-.21-1.45-.17-1.95.02-.13-.08-.61-.16-1.05-.07-.49-.14-.99-.21-1.49l-.12-.79-.03-.2v-.05s-.01-.03-.01-.03v-.11s-.05-.39-.05-.39c0-.02-.02-.08.03-.05l.09.07.17.13c.06.05.12.1.16.15l.03.03.2.13.38.27c.13.11.38.32.5.43,1.07.74,2.47,1.57,3.61,2.21.57.32,1.13.33,1.13.33.17.04.36.04.25-.09-.26-.19-.96-.62-.9-.7.01-.02.15.06.29.15.05-.09.58,0,.72.08.17.04,1.08.42,1.24.46.46.19-.59-.9-1.11-1.31-.25-.21.07-.11.11-.18-.29-.15-.39-.3-.68-.45,0-.01-.19-.15-.45-.32-.26-.17-.56-.36-.77-.49,0,0-.15-.06-.57-.32-.14-.09-.15-.06-.17-.04t.03-.04c-.17-.04-.42-.25-.57-.32t.03-.04c-.3-.13-.55-.34-.85-.49t.03-.04c-.14-.09-.28-.17-.26-.19t.03-.04c-.13-.11-.43-.23-.4-.28t-.03.04c-.28-.17-.52-.32-.74-.47-.43-.28-.83-.54-1.23-.8-.25-.16-.5-.33-.75-.49-.26-.16-.48-.2-.66-.2-.18,0-.32.03-.43.07-.06.02-.11.04-.16.07-.02,0-.08.05-.12.08-.04.03-.05.04-.07.06-.04.04-.08.09-.13.13-.04.06-.09.11-.12.19-.08.14-.15.34-.15.63,0,.15.04.32.08.48l.1.5Z"/><path class="cls-1" d="m94.47,46.18c-.01.07-.02.13-.04.2.01-.07.02-.13.04-.2Z"/><path class="cls-1" d="m94.43,46.37c-.01.07-.02.14-.04.21,0-.05.02-.13.04-.21Z"/><path class="cls-1" d="m88.67,42.88c.3-.13.07.11.11.18.26-.19.44-.21.71-.4,0,.01.22-.11.49-.26.27-.15.58-.34.79-.46,0,0,.13-.11.54-.36.14-.09.13-.11.11-.13t.03.04c.11-.13.42-.25.54-.36t.03.04c.25-.21.55-.34.82-.53t.03.04c.14-.09.28-.17.29-.15t.03.04c.15-.06.4-.28.43-.23t-.03-.04c.28-.17.53-.31.75-.44.02,0,.04,0,.05.01,0,0,0,.02,0,.03,0,.04-.02.05,0,.04,0,0,.01-.01.02,0,0,0,0,0,.01,0h0s0,0,0,.02v.06s-.03.12-.03.12c-.03.16,0,.33.07.18l-.09.48c-.06.32.05.17-.01.49-.33,2.59-.92,5.13-1.3,7.7.14-.64.28-1.11.37-1.75.03,0,.08.01.1-.15.2-.96.35-2.09.54-2.55.05-.16.16-.3.24-.78l-.09.48s.08.01.08.01c.14-.64.31-1.43.45-2.07,0,0,.05,0,.08.01l.06-.32c.23-.29-.11,1.47-.22,2.27.03,0,.08.01.1.02l.06-.32h.05c-.15.83-.27,1.54-.42,2.33.02-.09.03-.18.04-.24.03,0,.05,0,.08-.15-.11.64-.28,1.44-.35,2.09,0,.16.1.02.21-.46.09-.48.14-.8.23-1.28h.05c-.06.33-.17.81-.2,1.13,0,.16.13-.31.13-.14-.03.16-.06.32-.06.49.09-.48.18-1.13.29-1.6.05-.16.11-.31.16-.3.12-.8.31-1.43.52-1.89.06-.11.14-.6.22-1.04.11-.49.22-.98.32-1.47l.16-.79.23-1.19.13-.69c.04-.23.1-.47.1-.66,0-.38-.12-.6-.2-.78-.02-.04-.04-.09-.06-.12,0-.03-.12-.12-.15-.11-.08-.02-.17-.03-.28-.04-.21-.01-.49-.05-.88.16-.5.29-.99.58-1.49.86l-.37.21-.21.11-.42.22c-.15.06-.46.19-.61.25-1.15.61-2.52,1.48-3.61,2.21-.54.36-.81.86-.81.86-.11.13-.2.3-.03.26.29-.15.98-.57,1.04-.49.01.02-.13.11-.26.19.05.09-.26.52-.39.6-.11.13-.86.77-.98.9-.38.32,1.07-.12,1.67-.39Z"/><path class="cls-1" d="m66.37,36.05c.1-.25.2-.5.29-.74h0c-.07.18-.22.55-.29.74Z"/><path class="cls-1" d="m65.39,36.51c.46-1.09.93-2.4,1.24-2.91.1-.17.24-.33.46-.88l-.22.55s.07.03.07.03c.32-.73.71-1.63,1.02-2.36,0,0,.05.02.07.03l.15-.37c.31-.3-.52,1.71-.86,2.64.02,0,.07.03.1.04l.15-.37.05.02c-.34.85-.63,1.59-.95,2.39.02,0,.05.02.12-.16-.29.74-.68,1.65-.93,2.4-.05.19.1.04.34-.5.22-.55.37-.92.59-1.47l.05.02c-.15.37-.39.91-.51,1.29-.05.19.22-.34.17-.15-.07.18-.15.37-.2.56.22-.55.49-1.3.73-1.84.1-.17.19-.35.24-.33.34-.93.71-1.64,1.05-2.14.09-.12.31-.69.5-1.19.22-.5.43-1,.65-1.49l.34-.8.17-.4.05-.12.03-.06c.07-.15.13-.28.19-.4.05-.06.16,0,.16.08l.07.22.05.18v.05s.08.19.08.19l.13.37c.18.49.34.98.5,1.46.05.19.15.58.2.77.51,1.5,1.27,3.33,1.9,4.78.32.73.8,1.17.8,1.17.12.17.29.31.26.11-.12-.38-.49-1.3-.39-1.33.02,0,.1.17.17.36.1-.04.51.44.58.62.12.17.7,1.21.82,1.38.29.52,0-1.27-.23-2.04-.1-.39.12-.05.19-.08-.17-.36-.17-.57-.34-.93,0,0-.02-.07-.05-.19-.04-.12-.1-.27-.16-.45-.13-.35-.29-.76-.4-1.04,0,0-.1-.17-.32-.73-.07-.18-.1-.17-.12-.17t.05-.02c-.12-.17-.22-.55-.32-.73t.05-.02c-.19-.35-.29-.74-.46-1.09t.05-.02c-.07-.18-.15-.37-.12-.38t.05-.02c-.05-.19-.24-.54-.2-.56t-.05.02c-.29-.74-.49-1.3-.68-1.86-.03-.1-.07-.2-.1-.31-.07-.19-.14-.39-.22-.59-.16-.43-.33-.86-.49-1.3-.12-.3-.29-.48-.44-.61-.16-.13-.3-.2-.42-.25-.12-.05-.38-.11-.62-.09-.12,0-.24.03-.32.06-.09.03-.14.05-.21.09-.62.03-1.18,2.07-1.51,2.81-.07.18-.1.39.02.22l-.22.55c-.15.37,0,.21-.15.58-1.05,2.99-2.34,5.88-3.44,8.85.32-.73.58-1.26.85-2,.02,0,.07.03.14-.16Z"/></svg>