<?xml version="1.0" encoding="UTF-8"?><svg id="Layer_1" xmlns="http://www.w3.org/2000/svg" viewBox="0 0 139.69 139.69"><defs><style>.cls-1{fill:#f9f8ee;}.cls-1,.cls-2{stroke-width:0px;}.cls-2{fill:#ff5337;}</style></defs><path class="cls-2" d="m139.69,69.85c0,38.57-31.27,69.84-69.84,69.84S0,108.42,0,69.85,31.27,0,69.85,0s69.84,31.27,69.84,69.85Z"/><path class="cls-1" d="m51.22,35.57c-.05,0-.14,0-.2,0-.3.01-.59.08-.87.17-.56.2-1.06.54-1.43.97-.37.43-.65.94-.79,1.48-.07.27-.12.55-.13.82v.2s0,.16,0,.16v.32c0,.87,0,1.73,0,2.6-.03,13.84-.06,27.49-.15,40.33-.03,1.61-.08,4.82-.11,6.42,0,1.6-.02,3.26-.02,4.95v.37c0,.15.02.29.04.44.04.29.11.58.22.86.1.28.24.55.41.8.08.13.18.25.27.37l.15.17.11.12c.59.63,1.18,1.27,1.77,1.92,2.39,2.57,4.84,5.22,7.3,7.87,2.46,2.64,4.92,5.28,7.32,7.85.6.64,1.19,1.28,1.78,1.91l.22.24c.09.09.21.21.32.31.24.2.5.38.78.52.47.24,1.01.36,1.54.36.1,0,.21,0,.31-.01.63-.06,1.23-.3,1.73-.65.12-.09.24-.18.35-.29.1-.1.23-.23.29-.29l.42-.46c.56-.61,1.11-1.21,1.66-1.8,4.35-4.72,7.42-8.45,7.42-8.45.76-.88,1.5-1.77,1.43-1.77-.03,0-.18.13-.49.45-1.1,1.17-3.02,3.22-4.67,4.97-.83.87-1.59,1.67-2.14,2.25-.54.56-.9.91-.93.91,0,0,0,0,0,0,0,0,.06-.08.18-.21.12-.13.29-.32.49-.54.41-.44.95-1.03,1.5-1.62-.04-.04.72-.97,1.63-2.05.91-1.07,1.96-2.29,2.51-2.87,1.08-1.21,7.47-8.38,8.55-9.59.46-.51.65-.74.62-.74-.18,0-8.16,8.14-11.95,12.12-.72.75-.98,1-1.01,1-.06,0,.9-1.11.86-1.15-2.17,2.37-3.32,3.49-5.49,5.86,0,0-.11.11-.3.3-.19.2-.46.49-.79.84-.17.18-.35.37-.55.58-.1.1-.2.21-.31.33-.1.1-.23.26-.29.3-.26.25-.62.42-1,.42-.05,0-.1,0-.15,0-.22-.03-.43-.11-.63-.24-.1-.07-.19-.15-.28-.24l-.41-.44c-.54-.59-1.09-1.18-1.63-1.76-1.07-1.16-2.1-2.26-2.92-3.14,0,0-1.11-1.16-4.39-4.68-.55-.59-.82-.88-.97-1.02-.11-.11-.14-.13-.15-.13,0,0,0,0,0,0t.04-.04c-1.13-1.14-3.28-3.53-4.39-4.69t.04-.04c-1.11-1.16-2.2-2.33-3.29-3.51l-.41-.44c-.08-.09-.1-.11-.15-.17-.04-.05-.08-.1-.11-.16-.14-.22-.23-.48-.28-.75-.01-.07-.02-.14-.02-.2,0-.03,0-.07,0-.1v-.14s0-.6,0-.6v-1.2h.05c0-.8,0-1.61,0-2.21,0-.3,0-.55,0-.73,0-.18,0-.28.02-.28h.05c.01-.8,0-2.01,0-3.01,0-.5,0-.95,0-1.28,0-.33,0-.53.02-.53h-.05c.02-6.42.04-11.24.05-16.05.05-6.42.07-13.64.06-21.07,0-1.86,0-3.72,0-5.6v-1.4c0-.45-.02-1.01.02-1.22.08-.57.46-1.07.91-1.24.11-.05.22-.07.34-.08h.09s.17,0,.17,0h.35s1.4,0,1.4,0c.93,0,1.86,0,2.78,0,1.85,0,3.68-.01,5.48-.02,1.6,0,3.21-.05,1.6-.11h4.82c3.21,0,1.6-.08,4.81-.08l9.63-.04h4.82s1.2-.01,1.2-.01c0,0,.01,0,.02,0,.26,0,.48.07.71.18.46.24.8.74.91,1.3.03.14.04.28.04.43v.6s0,1.2,0,1.2v2.41s0,4.82,0,4.82v9.63s-.01,19.26-.01,19.26v9.63s.01,4.82.01,4.82v2.41c0,.22,0,.35-.01.49-.02.14-.05.28-.09.42-.09.27-.23.52-.42.72.19-.2.33-.44.42-.71.05-.13.08-.27.1-.4,0-.07.02-.14.02-.21v-.25c0-.76.01-1.5.02-2.23,0-1.45.02-2.86.02-4.26.01-2.81.02-5.62,0-8.83.01,0,.03,0,.05-.2.02-.2.03-.6.03-1.41.03-9.63-.03-20.87.08-25.68.03-1.61.11-3.21.11-8.03v4.82h.08c0-1.61.01-3.31.02-5.07,0-.88,0-1.77,0-2.67,0-.45,0-.89,0-1.34,0-.39-.09-.78-.27-1.12-.34-.69-1.03-1.2-1.78-1.21-.89,0-1.78,0-2.65-.01-1.76,0-3.46-.01-5.07-.02v-.08h-3.21c-1.61-.09,2.01-.13,7.02-.15.91,0,1.87,0,2.85,0,.37,0,.74,0,1.11,0,.65.03,1.27.37,1.68.88.42.51.62,1.18.61,1.84,0,2.73.01,5.34.01,7.35h.11v-3.21h.05v20.86s.03,0,.04-.2c.01-.2.02-.6.02-1.4,0,6.42-.03,14.45.03,20.87,0,.4.02.6.03.6.03,0,.08-1.8.1-5.41v-12.84h.05c0,3.21-.03,8.03,0,11.24,0,.24,0,.33.01.33.02,0,.06-2.27.08-2.27,0,0,0,.1.01.33,0,1.61,0,3.21.03,4.82,0-4.82-.03-11.24,0-16.06.02-.8.03-1.6.04-2.21.02-.6.04-1,.06-1-.03-8.02.05-14.44.19-19.26.01-.4.02-1.2.03-2.26,0-.14,0-.25,0-.42,0-.17-.02-.35-.05-.53-.06-.36-.17-.73-.35-1.09-.35-.71-1.01-1.39-1.9-1.69-.11-.03-.22-.07-.34-.1-.12-.02-.23-.04-.35-.06-.11,0-.25-.02-.35-.02h-.27c-.36,0-.73,0-1.09,0-.73,0-1.47,0-2.2,0-.06,0-.12,0-.18,0-6.52-.02-13.13-.05-19.76-.07-3.47,0-6.95-.01-10.43-.02h-2.61s-.33,0-.33,0h-.16s0,0,0,0h0Z"/><path class="cls-1" d="m84.15,65.74c.04.07.08.13.12.2-.04-.07-.08-.14-.12-.2h0Z"/><path class="cls-1" d="m83.86,65.23c.08.14.18.32.29.51-.1-.17-.19-.33-.29-.51h0Z"/><path class="cls-1" d="m84.27,65.94c.27.46.53.91.78,1.36-.24-.42-.53-.92-.78-1.36h0Zm.78,1.36c.09.15.17.29.24.41-.08-.14-.16-.28-.24-.41h0Z"/><path class="cls-1" d="m85.29,67.71s0,.01.01.02c0,0,0-.01-.01-.02h0Zm.01.02s.03.05.04.07c-.01-.02-.03-.05-.04-.07h0Z"/><path class="cls-1" d="m61.96,54.4h-.1s-.08,0-.13,0c-.08,0-.17.02-.25.04-.33.07-.64.21-.89.41-.13.1-.24.21-.34.34-.05.06-.1.13-.14.19l-.09.15c-.17.29-.33.56-.47.8,0,0-.35.66-1.46,2.59-.37.64-.35.66-.33.67t-.05-.03c-.33.67-1.12,1.93-1.47,2.59t-.05-.03c-.7,1.31-1.49,2.57-2.21,3.88t-.05-.03c-.19.32-.37.64-.51.88-.14.23-.24.39-.25.39,0,0,0,0,0,0t-.05-.03c-.2.32-.47.8-.7,1.21-.12.2-.22.38-.3.52-.14.25-.2.42-.21.42,0,0,0,0,0,0t.05.02c-.11.34-.14.69-.09,1.03.03.17.07.34.13.49.06.15.16.33.19.38.17.3.34.6.51.89.33.58.64,1.12.94,1.65.59,1.05,1.14,2.02,1.69,3,.72,1.3,1.5,2.68,2.31,4.1.41.71.82,1.43,1.24,2.17.21.37.42.73.64,1.1l.32.56s.08.14.14.22c.06.09.13.17.2.25.15.16.31.29.5.41.37.23.8.35,1.23.35h.65c.43,0,.87,0,1.3,0,.87,0,1.74,0,2.6-.01,1.73-.01,3.45-.03,5.12-.04.74,0,1.49-.05.74-.11h2.23c1.49,0,.74-.08,2.23-.08h.56s.04,0,.06,0c.17,0,.51,0,.77-.11.31-.1.6-.28.84-.52.12-.12.22-.25.3-.39l.15-.26,1.1-1.94,2.22-3.87,2.23-3.87,1.12-1.93.56-.97.28-.48.14-.24c.06-.1.15-.28.19-.42.1-.31.13-.64.08-.96-.03-.16-.07-.32-.13-.47-.03-.07-.07-.15-.11-.22l-.07-.13-.56-.97-1.11-1.93-2.23-3.87-2.24-3.86-1.12-1.93-.28-.48-.14-.24-.07-.12s-.08-.13-.13-.19c-.37-.52-1-.84-1.64-.84,0,0-.01,0-.02,0,.65,0,1.25.32,1.61.81.04.06.09.12.13.19l.07.13.13.23c.08.15.17.3.25.45.33.59.65,1.16.97,1.72.64,1.13,1.28,2.26,2.04,3.54-.02.01-.07.04.3.68,1.11,1.94,2.32,4.03,3.38,5.88.13.23.26.46.39.68.07.12.13.23.2.34.1.18.16.37.2.56.07.39.02.79-.14,1.12-.09.19-.14.26-.2.36-.06.1-.11.19-.17.29-.44.75-.83,1.39-1.13,1.85-.4.63-.84,1.23-1.95,3.17.37-.65.74-1.29,1.12-1.93-.02-.01-.07-.04-.07-.04-1.51,2.57-3.4,5.77-4.9,8.34,0,0-.05-.03-.07-.04l-.74,1.29c-.07.09-.11.13-.12.13-.17,0,3.47-6.26,5.17-9.25-.02-.01-.07-.04-.09-.05l-.74,1.29-.05-.03c1.12-1.93,2.14-3.7,3.16-5.47.3-.42.28-.98-.02-1.4-.26-.45-.52-.89-.78-1.35-.04-.07-.09-.15-.13-.22-.02.01-.05.03.33.67-1.49-2.58-3.32-5.81-4.86-8.36-.1-.15-.15-.23-.16-.23-.04,0,.33.75,1.16,2.23,1.12,1.93,1.86,3.22,2.98,5.15l-.05.03c-.74-1.29-1.84-3.23-2.6-4.51-.06-.09-.08-.13-.09-.13-.03,0,.48.95.46.95,0,0-.03-.04-.09-.13-.37-.65-.74-1.29-1.14-1.92,1.12,1.93,2.63,4.5,3.72,6.44.35.66.7,1.31.65,1.34l.17.3.08.14s.03.05.04.08c.04.11.05.24.03.36-.01.06-.03.11-.06.17l-.15.26c-.11.19-.22.37-.32.55-.43.72-.83,1.39-1.21,2.04-.77,1.27-1.47,2.37-2.08,3.31-.31.46-1.42,2.4-2.43,4.15-.34.58-.69,1.16-1.03,1.75l-.61,1.03c-.26.45-.25.43-.4.5-.03.01-.06.02-.09.02-.02,0-.02,0-.06,0h-.15s-.6,0-.6,0h-1.2c-.8-.01-1.61-.02-2.41-.02-3.22-.01-6.45-.03-9.66-.04h-1.2s-.3,0-.3,0h-.1s-.04,0-.04,0c-.05-.01-.1-.03-.13-.07-.02-.02-.04-.04-.05-.06-.01-.02,0,0-.03-.05l-.07-.13-.3-.52-.59-1.04c-.79-1.38-1.57-2.75-2.34-4.11-.77-1.36-1.53-2.71-2.28-4.04-.37-.67-.75-1.33-1.12-1.99-.18-.33-.37-.66-.55-.98l-.27-.49-.14-.24s-.02-.03-.02-.03c0,0,0,0,0,0,0,0,0-.01,0-.02,0-.03,0-.06.02-.08,0,0,0-.01.01-.02,0,0,0,0,0,0l.04-.07c.07-.12.15-.23.22-.35.3-.47.59-.95.79-1.26,1.52-2.55,3.21-5.45,4.88-8.35.67-1.16,1.33-2.32,1.98-3.45,1.55-.01,3.05-.02,4.46-.03,2.98-.03,5.21-.32,5.21-.32.75-.05,1.49-.16.75-.21-1.49-.03-5.2-.03-5.2-.13,0-.01.19-.02.46-.02.28,0,.65,0,1.02,0,0-.11,2.23-.32,2.97-.32.77-.03,5.18-.23,5.95-.27,2.23-.08-4.46-.48-7.44-.56-1.49-.05,0-.13,0-.21-.22,0-.42,0-.61,0-.92,0-1.58-.04-2.5-.04-.19,0-.39,0-.61,0,0,0-.07,0-.2,0-.13,0-.31,0-.54,0-.45,0-1.08-.01-1.78-.02-.35,0-.71,0-1.08,0h-.56s-.28,0-.28,0h0Z"/><path class="cls-1" d="m59.58,73.11c.05.08.09.16.14.24-.04-.08-.09-.15-.14-.24h0Z"/><path class="cls-1" d="m75.04,58.56h-.46s-.91,0-.91,0c-.61,0-1.22,0-1.83.01-1.21.01-2.42.03-3.6.04-.52,0-1.04.05-.52.11h-1.57c-1.04,0-.52.08-1.56.08h-.23c-.12,0-.23.03-.35.05-.23.05-.45.13-.65.25-.2.12-.38.27-.53.45-.07.09-.14.18-.2.28l-.11.19-.77,1.36-1.55,2.72-1.56,2.71-.78,1.36-.39.68-.1.17-.07.12s-.05.1-.07.15c-.09.21-.14.43-.16.66-.01.23,0,.46.07.68.03.11.07.22.12.32.02.05.05.1.08.15l.05.09.39.68.78,1.36,1.56,2.71,1.57,2.71.79,1.35.1.17c.04.06.05.1.13.21.12.19.28.36.46.49.35.27.8.43,1.24.43,0,0,0,0,.01,0-.45,0-.88-.16-1.22-.42-.17-.13-.31-.28-.43-.45-.14-.2-.16-.26-.22-.38-.23-.41-.45-.81-.67-1.21-.44-.8-.9-1.59-1.43-2.49.02-.01.07-.04-.19-.49-.78-1.36-1.62-2.83-2.37-4.13-.09-.16-.18-.32-.27-.48-.05-.08-.09-.16-.14-.24-.07-.12-.12-.25-.16-.39-.16-.53-.05-1.1.19-1.49.31-.52.59-.97.81-1.29.28-.44.61-.85,1.4-2.21l-.78,1.36s.07.04.07.04c1.07-1.8,2.4-4.04,3.46-5.84,0,0,.05.03.07.04l.52-.9c.05-.06.08-.09.1-.09.17,0-2.4,4.4-3.59,6.51.02.01.07.04.09.05l.52-.9.05.03c-.39.68-.77,1.33-1.13,1.96-.18.32-.36.63-.55.94l-.27.47c-.09.16-.19.3-.23.47-.1.33-.03.7.17.99.18.31.36.63.55.94.16.28.33.57.49.85-.15-.27-.3-.52-.4-.7.02-.01.05-.03-.21-.48,1.04,1.81,2.32,4.08,3.41,5.86.07.1.11.16.12.16.04,0-.21-.53-.79-1.58-.78-1.36-1.3-2.26-2.09-3.62l.05-.03c.52.9,1.28,2.27,1.83,3.16.04.06.06.09.06.09.03,0-.33-.68-.3-.68,0,0,.03.03.06.09.26.45.52.9.81,1.34-.78-1.36-1.85-3.15-2.61-4.52-.24-.46-.48-.93-.43-.96l-.12-.21-.06-.1s-.02-.04-.03-.06c-.04-.08-.05-.16-.05-.25,0-.08.02-.17.05-.24.02-.05.02-.05.07-.13l.11-.19c.3-.51.59-.98.86-1.42.55-.89,1.05-1.65,1.5-2.3.23-.32,1.01-1.68,1.71-2.91.24-.41.49-.82.73-1.22l.43-.72c.18-.31.18-.3.27-.36.04-.02.08-.04.12-.05.02,0,.04,0,.06,0,0,0,0,0,0,0h.18s.84,0,.84,0c.56,0,1.13,0,1.69.01,2.26.01,4.52.03,6.77.04h.84s.21,0,.21,0h.05s.02,0,.02,0c0,0,0,0,0,0,0,0,.02,0,.02,0,0,0,0,0,0,0,.03,0,.07.02.1.04.03.02.06.04.08.07.01.01.02.03.03.04l.09.16.41.73c.55.97,1.09,1.93,1.63,2.89.54.96,1.07,1.9,1.59,2.84.26.47.52.94.78,1.4.13.23.26.46.38.69l.19.34.09.17s.01.03.02.04c0,.04-.02.09-.06.11-.21.32-.42.65-.56.86-1.08,1.79-2.26,3.81-3.43,5.85-.47.82-.93,1.63-1.38,2.42,0,0,0,0,0,0,0,0,0,0,0,0,0,0,0,0,0,0h-.11s-.21,0-.21,0c-.28,0-.56,0-.83,0-.55,0-1.09.01-1.61.02-2.09.03-3.65.32-3.65.32-.52.05-1.04.16-.52.21,1.04.03,3.65.03,3.65.13,0,.03-.52.03-1.04.03,0,.11-1.56.32-2.09.32-.52.05-3.65.21-4.17.27-1.57.08,3.13.48,5.22.56,1.04.05,0,.13,0,.21.15,0,.29,0,.43,0,.65,0,1.11.04,1.75.04.13,0,.28,0,.43,0,0,0,.05,0,.14,0,.09,0,.22,0,.38,0,.32,0,.76.01,1.25.02.24,0,.5,0,.76,0h.2s.14,0,.14,0c.06,0,.12,0,.18-.01.24-.03.47-.1.68-.2.21-.1.4-.24.57-.4.08-.08.16-.16.22-.25.03-.04.07-.09.09-.14l.07-.11c.12-.2.23-.39.33-.56,0,0,.24-.47,1.02-1.82.26-.45.24-.47.22-.48t.05.03c.22-.48.78-1.36,1.02-1.82t.05.03c.48-.93,1.04-1.81,1.54-2.72t.05.03c.26-.45.51-.89.54-.89,0,0,0,0,0,0t.05.03c.14-.22.33-.56.49-.85.03-.06.06-.11.09-.17.03-.07.06-.13.08-.2.05-.13.08-.24.1-.34.04-.2.05-.33.07-.33h0s-.03,0-.05,0c.02-.25,0-.49-.07-.73-.03-.12-.07-.23-.12-.34-.04-.11-.12-.23-.14-.26-.12-.21-.24-.42-.36-.62-.23-.4-.45-.79-.65-1.16-.41-.74-.79-1.42-1.17-2.11-.5-.92-1.04-1.89-1.61-2.88-.29-.5-.58-1.01-.87-1.52-.15-.26-.3-.51-.45-.77l-.06-.1c-.03-.05-.07-.13-.12-.18-.09-.12-.18-.24-.29-.34-.22-.21-.47-.38-.75-.49-.28-.11-.58-.17-.88-.17h0Z"/><path class="cls-1" d="m59.71,73.35c.06.11.12.21.19.32-.05-.09-.12-.2-.19-.32h0Z"/><path class="cls-1" d="m59.26,72.57s.04.07.06.1c-.02-.03-.04-.07-.06-.1h0Zm.06.1c.05.08.09.16.14.24-.05-.08-.09-.16-.14-.24h0Z"/><path class="cls-1" d="m59.46,72.91c.04.07.08.14.12.21-.04-.07-.08-.14-.12-.21h0Z"/><path class="cls-1" d="m93.61,83.88l3.39.04v.34c-.45-.08-.91-.12-1.38-.12h-2c0-.08-.01-.17-.01-.26m2.79-47.72c-.16,0-.31,0-.44.05-.11.03-.21.07-.3.12-.04.02-.08.04-.12.07-.05.04-.09.09-.11.12-.1.16-.19.36-.22.62-.01.27,0,.54-.01.81,0,.35-.01.69-.02,1.04,0,.3-.02.61-.03.91-.02.6-.05,1.2-.08,1.78-.03.2-.08.61-.11.82-.04.82-.05,1.73-.05,2.65,0,.49.01.99.02,1.47,0,.22,0,.44,0,.66,0,.22,0,.44.07.6.05.16.13.28.21.38v.11s0,1.66,0,1.66v.83s.01.41.01.41v.1s0,.08,0,.08c-.02,3.41-.03,6.81-.05,10.15-.02,3.3-.06,6.53-.12,9.64-.03.63-.08,1.89-.11,2.53-.04,2.52-.05,5.37-.05,8.21.02,3.75.03,7.49.05,10.83,0,.45,0,.89.01,1.32,2.54-3.34,4.12-5.7,4.09-5.7,0,0-.01.01-.03.03.26-.39.49-.8.42-.8-.02,0-.09.05-.2.17-.47.59-1.27,1.59-2,2.5-.82,1.02-1.52,1.88-1.66,1.99,0-.08.01-.13.02-.15,0,0,0,0,0,0,0,0,0,.02,0,.06.15-.22.59-.78,1.03-1.34.02-.12.44-.78.84-1.39.4-.61.81-1.22.98-1.45.35-.53,2.56-3.61,2.91-4.14.16-.23.22-.33.19-.33-.07,0-.62.56-1.33,1.34-.51.55-1.1,1.22-1.67,1.86-.28.33-.56.64-.82.94-.08.09-.1.11-.13.14-.03.03-.05.06-.08.08-.05.05-.1.1-.14.15-.07.07-.11.1-.13.1-.02,0-.01-.05,0-.1.03-.1.08-.22.06-.27-.15.22-.23.25-.32.36,0-.05,0-.09,0-.13.01-.03.03-.25.04-.46,0,0,0,.01,0,.01,0,0,0-.85.01-1.38,0-.62,0-1.21,0-1.69,0,0-.03-.63-.03-2.53,0-.63-.03-.63-.05-.63h.05c-.05-.63,0-1.9-.03-2.53h.05c-.05-1.26,0-2.52-.03-3.79h.05c0-.63,0-1.26.03-1.26h.05c.03-.63-.03-1.9.03-1.9h-.05c0-2.53.03-4.42.05-6.32.04-2.08.06-4.37.06-6.74,0-1.19,0-2.39,0-3.61v-1.82s-.01-.45-.01-.45v-.17s0,0,0,0v-.03s.01,0,.01,0h.01s.37,0,.37,0c.51,0,1.02,0,1.52-.01.63,0,1.26-.05.63-.11h.69v.03c0,.09.02.1.04.13,0,0,0,0,0,.01,0,.02,0,.04,0,.07,0,.05,0,.1.01.17,0,.14.01.34.01.65.13,10.11,0,20.21.08,30.31.03-2.53.08-4.42.05-6.95.03,0,.08,0,.08-.63.03-3.79-.03-8.21.08-10.1.03-.63.11-1.26.11-3.16v1.9h.08c.02-2.53.06-5.68.08-8.21h.08v-1.26c.02-.1.03-.15.04-.15.14,0,.12,6.09.14,8.99h.11v-1.26h.05v8.21s.05,0,.05-.63c0,2.53-.03,5.68.03,8.21,0,.16.02.24.03.24.03,0,.08-.71.1-2.13v-5.05h.05c0,1.26-.03,3.16,0,4.42,0,.09,0,.13.01.13.02,0,.06-.89.08-.89,0,0,0,.04.01.13,0,.63,0,1.26.03,1.9,0-1.9-.03-4.42,0-6.32.03-.63.05-1.26.11-1.26-.03-3.16.05-5.68.19-7.58.04-.47.03-2.38.03-4.1.01-1.07.02-2.15.03-3.24,0-.86.01-1.73.02-2.59.21,0,.42,0,.59,0,0,0,.28-.03,1.1-.03.28,0,.28-.03.28-.05v.05c.1-.02.24-.02.39-.02.16,0,.34,0,.49,0,.08,0,.16,0,.22,0v.05c.2-.02.41-.02.61-.02.22,0,.45,0,.67,0,.13,0,.25,0,.38,0v.05c.28,0,.55,0,.55.03v.05c.06,0,.14,0,.22,0,.15,0,.3,0,.42,0,.11,0,.18,0,.18.02v-.05c.23,0,.45,0,.66,0,.02,0,.04,0,.07,0,.09,0,.18,0,.26,0,.13,0,.26,0,.38-.03.21-.05.36-.12.5-.21.07-.05.15-.12.21-.19.06-.07.1-.13.14-.2.08-.14.14-.31.17-.5.02-.2.01-.41.02-.61,0-.19,0-.37,0-.56v-.31c.04-.55.05-1.14.06-1.75,0-.34,0-.68,0-1.03,0-.31,0-.63,0-.94-.04-.31-.15-.52-.29-.7-.08-.1-.2-.21-.29-.27-.09-.06-.2-.12-.33-.16-.16-.07-.37-.08-.58-.08-.1,0-.21,0-.31,0,0,0-.02,0-.02,0h-1.24c-.64.03-1.28.04-1.9.05-.28,0-.55.05-.28.11h-.83c-.55,0-.28.08-.83.08-1.36.04-2.73.06-4.09.06,0-.58-.02-1.28,0-1.83.03-.2.05-.41.11-.41-.03-1.02.05-1.84.19-2.45.04-.15.03-.77.03-1.32l.02-.66.02-.93c0-.21.01-.43,0-.64-.02-.2-.08-.38-.15-.52-.03-.06-.07-.14-.15-.2-.07-.04-.13-.08-.21-.11-.15-.07-.34-.12-.55-.13-.84,0-1.67-.02-2.5-.03,0,0-.01,0-.02,0-.1,0-.21,0-.32,0h0Zm2.01,1.89s.02,0,.03,0c.02,0,.03,0,.03.03,0,.02,0,.02.02.02,0,0,.02,0,.03,0,.02,0,.03,0,.03.04v.06s.01,0,.01.02v.08s0,.15,0,.15l.02.61c0,.41.01.82.02,1.22,0,.82,0,1.63,0,2.45v2.45s0,.2,0,.2c-.4,0-.81,0-1.21,0h-.33c0-.07,0-.15,0-.24,0-.2-.03-.2-.05-.2h.05c-.05-.2,0-.61-.03-.82h.05c-.05-.41,0-.82-.03-1.22h.05c0-.2,0-.41.03-.41h.05c.03-.2-.03-.61.03-.61h-.05c0-.82.03-1.43.05-2.04.03-.41.04-.84.05-1.29,0-.11,0-.22,0-.33h0s0,0,0,0c0,0,0,0,0,0,0,0,0,0,0,0h0s.15,0,.15,0c.24,0,.47-.01.71-.02h.17s0,0,0,0h.02s0-.01,0-.01c0,0,.07-.05.08-.11,0,0,0,0,0,0h0Zm.53,3.46h.08c.02-.82.06-1.83.08-2.65h.08v-.41s.03-.05.04-.05c.14,0,.12,1.97.14,2.9h.11v-.41h.05v2.65s.05,0,.05-.2c0,.62-.01,1.36,0,2.03-.26,0-.52,0-.78,0-.03,0-.07,0-.1,0,.02-.01.05-.05.05-.2.03-1.22-.03-2.65.08-3.26.03-.2.11-.41.11-1.02v.61h0Zm.8,3.87v-1.62h.05c0,.41-.03,1.02,0,1.43,0,.03,0,.04.01.04.02,0,.06-.29.08-.29,0,0,0,.01.01.04,0,.13,0,.27.01.4-.06,0-.11,0-.17,0h0Zm-2.66.92c0-.13,0-.25,0-.34,0,0-.01-.11-.02-.41,0,0,0,0,0,0,0,0,.02,0,.03,0,0,0,0,0,0,0,.2,0,.4,0,.58.01.32.01.6.03.81.05.04,0,.07,0,.11.01v.68h-1.52Zm1.6,0c0-.21,0-.44,0-.67.2.03.45.07.91.08,0,0,0,0,0,0h-.55v.08c.18,0,.36,0,.55.01,0,.06,0,.13,0,.19,0,.05.02.08.03.08.02,0,.05-.09.07-.26.96.02,2.04.05,2.93.07v.08h.55c.55.19-2.49.16-3.87.19v.11h.55v.05h-1.2Zm1.04-.58s0,0,0,0c.05,0,.1,0,.16,0h-.16Zm-1.1,1.38c-.43-.09-.93-.18-1.26-.21-.12-.01-.1-.03-.12-.04,0-.01,0-.02,0-.04.03,0,.06,0,.09,0,.16,0,.32,0,.48,0,.28,0,.54.02.79.03v.19s0,.07,0,.07h0Zm.48.4c.14-.02.25-.04.3-.06.36-.05-.13-.2-.75-.34,0-.02,0-.03,0-.05,0-.07,0-.14,0-.21.01,0,.03,0,.04,0,.55.03,1.04.09,1.45.15.14.03.55.03,1.03.03.25,0,.51,0,.76,0,1.13.03,2.27.05,3.42.07,1.1.01,2.19.03,3.29.04h.11s0,0,.01,0c.03,0,.07.01.07.06v.22c-.02.56-.03,1.12-.04,1.68,0,.29-.01.58-.02.87v.42s-.02.08-.02.08c-.02.04,0,.11-.06.11-.05,0-.1-.02-.14-.03-.02,0,.02-.01-.11-.02-.1,0-.2-.02-.3-.03-.21-.02-.41-.04-.55-.05-1-.04-2.11-.05-3.23-.05-1.36,0-2.74.02-3.95.05-.9.02-1.62.22-1.85.29-1.11,0-2.21,0-3.32-.01,0-.19.01-.37.02-.55.01-.48.02-.97,0-1.52.02,0,.07,0,.08-.22.01,0,.02.02.03.03.06.04.11.08.18.11.15.08.35.13.57.13.02,0,.04,0,.05,0,0,.27.01.53.02.78,0,.07.02.1.03.1.03,0,.08-.3.1-.89.06,0,.12,0,.17-.01,0,.08,0,.17.01.25,0-.08,0-.17,0-.25.47-.04.87-.1.94-.15.18-.06.29-.11.29-.11.2-.05.41-.16.2-.21-.15,0-.38-.02-.62-.03-.16,0-.32-.01-.47-.02-.14,0-.25-.01-.35-.02,0-.03,0-.06,0-.09.09,0,.19,0,.3,0,.02-.05.24-.13.45-.2.18-.07.38-.12.48-.12.15-.04.89-.14,1.33-.21-.27,0-.54,0-.46,0h0c.13,0,.31,0,.46,0h0Zm-2.7.61s-.03,0-.04-.01c0-.02,0-.04,0-.07.01,0,.03,0,.04,0,0,.03,0,.05,0,.08h0Zm.11.02s-.02,0-.03,0c0,0,0,0,0,0,0-.04.01-.08.02-.09,0,0,0,0,0,0,0,0,0,.02,0,.05,0,.01,0,.03,0,.04h0Zm.77-9.9s0,0,0,0c0,0,0,0,0,0h0Z"/><path class="cls-1" d="m99.1,47.5s0,0,0,0c.03,0,.07,0,.1,0-.03,0-.07,0-.1,0h0Z"/><path class="cls-1" d="m99.4,47.5h0s-.08,0-.13,0h-.07c.06,0,.11,0,.15,0,.03,0,.04,0,.05,0h0s0,0,0,0c.01,0,.01,0,0,0h0Zm0,0h0,0Z"/><path class="cls-1" d="m43.32,35.86c-.42,0-.85,0-1.27.01-.64.01-1.28.03-1.91.04,0,0-.01,0-.02,0-.19,0-.35.06-.41.1-.05.03-.05.05.02.05.03,0,.06,0,.1,0-.16.04-.29.11-.4.18-.05.03-.11.07-.17.14-.05.06-.08.11-.11.16-.13.25-.12.37-.12.45,0,.1.02.19.02.56.01.51.03,1.02.04,1.52,0,.41.01.82.02,1.22,0,.82,0,1.63,0,2.45v2.45s0,.32,0,.32c-.2-.01-.5-.01-.83-.01-.24,0-.51,0-.76,0-1.36-.04-2.73-.06-4.11-.08-.71,0-1.43-.02-2.14-.02h-.68s-.05,0-.08,0c-.12,0-.24,0-.36,0-.16,0-.32,0-.46.05-.13.03-.24.08-.34.13-.1.05-.22.16-.28.26-.11.19-.21.44-.21.75,0,.57-.01,1.14-.02,1.71,0,.44-.02.88-.03,1.32-.01.58-.02,1.15-.03,1.72,0,.19.04.37.1.51.06.14.11.26.24.39.13.13.23.18.38.24.14.06.32.11.51.11.21,0,.41,0,.62.01.11,0,.33.01.39.02.09,0,.2.02.3.03.21.02.41.04.55.05.99.04,2.09.05,3.21.05.64,0,1.29,0,1.92-.01,0,.07.01.15.02.25,0,.14.01.34.01.65.13,10.11,0,20.21.08,30.31.03-2.53.08-4.42.05-6.95.03,0,.08,0,.08-.63.03-3.79-.03-8.21.08-10.1.03-.63.11-1.26.11-3.16v1.9h.08c.02-2.53.06-5.68.08-8.21h.08v-1.26c.02-.1.03-.15.04-.15.14,0,.12,6.09.14,8.99h.11v-1.26h.05v8.21s.05,0,.05-.63c0,2.53-.03,5.68.03,8.21,0,.16.02.24.03.24.03,0,.08-.71.1-2.13v-5.05h.05c0,1.26-.03,3.16,0,4.42,0,.09,0,.13.01.13.02,0,.06-.89.08-.89,0,0,0,.04.01.13,0,.63,0,1.26.03,1.9,0-1.9-.03-4.42,0-6.32.03-.63.05-1.26.11-1.26-.03-3.16.05-5.68.19-7.58.04-.47.03-2.38.03-4.11.02-1.88.04-3.77.06-5.67.09,0,.17,0,.26,0,.9-.02,1.6-.22,1.84-.29h1.64c-.02,3.09-.04,6.16-.05,9.18-.02,3.3-.06,6.53-.12,9.64-.03.63-.08,1.89-.11,2.53-.04,2.52-.05,5.37-.05,8.21,0,1.42.01,2.84.02,4.22,0,.35,0,.69,0,1.03v.22s0,0,0,0h0s.01.07.02.11c0,.02,0,.05.01.07.01.06-.03.09-.1.09-.11,0-.28-.08-.44-.28-.29-.31-.6-.61-.67-.61-.03,0,0,.07.11.24.25.33.66.88,1.04,1.38.28.38.57.78.68,1,0,0,0,0,0,0,0,0,.01.01.02.03,0,.01,0,.04.01.07-.05-.03-.25-.29-.45-.55,0,.03,0,.05-.03.05-.06,0-.2-.09-.4-.27-.29-.26-.65-.64-.87-.91-.43-.47-2.89-3.35-3.33-3.81-.16-.19-.24-.27-.27-.27-.07,0,.36.69.97,1.62.42.63.92,1.36,1.41,2.07.25.35.49.7.72,1.02.36.49.69.94.98,1.32.45.61.58.81.55.81-.01,0-.04-.02-.09-.06-.15-.14-.47-.48-.52-.48,0,0,0,0,0,0,1.1,1.36,1.77,2.29,2.72,3.52,0-.38,0-.79,0-1.26,0,0,0,0,0,0,0,0,0-.1,0-.28,0-.19,0-.46,0-.8,0-.69.01-1.65.02-2.72,0-1.35.01-2.97.02-4.05,0,0-.03-.63-.03-2.53,0-.63-.03-.63-.05-.63h.05c-.05-.63,0-1.9-.03-2.53h.05c-.05-1.26,0-2.52-.03-3.79h.05c0-.63,0-1.26.03-1.26h.05c.03-.63-.03-1.9.03-1.9h-.05c0-2.53.03-4.42.05-6.32.04-2.08.06-4.37.06-6.74-.01-2.75-.02-5.6-.03-8.38-.66,0-1.32,0-1.97.01,0-.09,0-.18,0-.27.01-.48.02-.97,0-1.52.02,0,.06,0,.07-.14.1,0,.21,0,.31.01.07,0,.13,0,.2,0,.11,0,.22,0,.32-.03,0,.34.01.67.03.97,0,.07.02.1.03.1.03,0,.08-.31.1-.93v-.19s.04-.02.06-.03c0,0,0,0,0,0,0,0,0,0,0,0,.02,0,.04-.01.06-.03,0,0,0,0,0,0,0,0,.02,0,.03,0,0,.18,0,.36.02.53,0-.17,0-.35,0-.54.04-.02.1-.05.18-.1.08-.07.13-.14.18-.23.05-.09.11-.21.14-.37.04-.15.03-.34.04-.52,0-.19,0-.37,0-.56,0-.23,0-.45,0-.63,0,0-.03-.2-.03-.82,0-.2-.03-.2-.05-.2h.05c-.05-.2,0-.61-.03-.82h.05c-.05-.41,0-.82-.03-1.22h.05c0-.2,0-.41.03-.41h.05c.03-.2-.03-.61.03-.61h-.05c0-.82.03-1.43.05-2.04.03-.41.04-.84.05-1.29,0-.34,0-.69,0-1.04,0-.23.02-.48-.03-.68-.05-.2-.14-.36-.23-.49-.04-.05-.12-.14-.18-.19-.06-.05-.13-.09-.2-.14-.15-.09-.35-.15-.59-.15h0Zm-2.89,9.73c0-.61-.03-1.43,0-2.04.03-.2.05-.41.11-.41-.03-1.02.05-1.84.19-2.45.04-.15.03-.77.03-1.32.01-.39.03-.78.04-1.17l.02-.2v-.1s.03-.04.05-.04c0,0,.02,0,.03,0h.2s.12.02.12.02h.33s.66.01.66.01h.17s.08.01.08.01c.01,0,.03,0,.04,0,.01.01,0,.03,0,.04v.17s-.02.08-.02.08v.3s-.02.65-.02.65c-.02.86-.05,1.7-.1,2.51-.03.2-.08.61-.11.82-.04.82-.05,1.73-.05,2.65,0,.19,0,.38,0,.57-.02,0-.05,0-.07,0-.16,0-.32,0-.48,0-.31,0-.6-.02-.88-.03-.19-.01-.37-.03-.54-.04,0-.07.01-.15.02-.24v-1.63h.05c0,.41-.03,1.02,0,1.43,0,.03,0,.04.01.04.02,0,.06-.29.08-.29,0,0,0,.01.01.04,0,.2,0,.41.03.61h0Zm-.98-4.08h.08c.02-.82.06-1.83.08-2.65h.08v-.41s.03-.05.04-.05c.14,0,.12,1.97.14,2.9h.11v-.41h.05v2.65s.05,0,.05-.2c0,.7-.02,1.53.01,2.27-.28-.03-.54-.06-.78-.1-.03,0-.08-.01-.14-.02,0-.04,0-.08,0-.12.03,0,.08,0,.08-.2.03-1.22-.03-2.65.08-3.26.03-.2.11-.41.11-1.02v.61h0Zm.15,4.75v-.05h2.61c0,.09,0,.2,0,.2,0,0,0,0,0,0,0,0,.03.03.02.05,0,0,0,.03,0,.06,0,.02,0,.03-.02.05v.03s-.07.02-.1.03c-.26.08-.41.15-.41.15-.16.04-.32.12-.28.17-.17,0-.32-.02-.45-.04-.28-.03-.55-.11-1.38-.11h.83v-.08c-.39,0-.82-.02-1.26-.03,0-.06,0-.12,0-.18,0-.04,0-.09,0-.13.36,0,.7,0,.97-.01v-.11h-.55Zm-3.31.29c-.44-.15,1.37-.16,2.83-.17v.03s0,.28,0,.28c-.78-.02-1.58-.04-2.28-.05v-.08h-.55Zm-5.36.88s0,0,0,0c0,0,0,0,0,0h0s.14,0,.14,0h.28c.74-.02,1.47-.03,2.18-.05.28,0,.55-.05.28-.11h.83c.55,0,.28-.08.83-.08,1.21-.04,2.41-.05,3.62-.06h.05s0,.19,0,.19v.15s0,.03,0,.03c0,.07,0,.14.03.21.03.14.1.27.19.38.17.22.45.35.73.35,0,0,0,0,0,0h0c-.28,0-.55-.14-.72-.35-.09-.11-.15-.23-.18-.37-.02-.07-.03-.13-.03-.2v-.05s0-.15,0-.15c0-.07,0-.13,0-.2h3.17s.1,0,.1,0c0,0,0,0,0,0,0,0,.01,0,.02,0-.01,0-.03,0-.04,0,.02.05-.06.13-.21.2-.18.07-.38.12-.48.12-.2.05-1.43.21-1.63.27-.61.08,1.22.48,2.04.56.08.01.21.03.23.04.03.02.01.03-.03.05-.11.04-.2.08-.2.12.03,0,.05,0,.07,0,.04,0,.08,0,.12,0,.07,0,.13,0,.19,0v.17s0,1.5,0,1.5v.26c-.74,0-1.47,0-2.19.01-.63,0-1.26.05-.63.11h-2.73v.03c-.14,0-.27,0-.39,0,0,0-.28.03-1.1.03-.28,0-.28.03-.28.05v-.05c-.1.02-.24.02-.39.02-.16,0-.34,0-.49,0-.08,0-.16,0-.22,0v-.05c-.2.02-.41.02-.61.02-.22,0-.45,0-.67,0-.12,0-.25,0-.38,0v-.05c-.28,0-.55,0-.55-.03v-.05c-.06,0-.14,0-.22,0-.15,0-.3,0-.42,0-.11,0-.18,0-.18-.02v.05s-.09,0-.13,0h-.03s-.03,0-.05-.01c-.01-.01,0-.04,0-.05,0-.02,0-.03.01-.04h0s0-.12,0-.12v-.25c.03-.47.05-.97.06-1.48,0-.26,0-.52.01-.78v-.31h0Zm0,0h0s0,0,0,0h0Z"/></svg>