<?xml version="1.0" encoding="UTF-8"?><svg id="Layer_1" xmlns="http://www.w3.org/2000/svg" viewBox="0 0 139.69 139.69"><defs><style>.cls-1{fill:#f9f8ee;}.cls-1,.cls-2{stroke-width:0px;}.cls-2{fill:#5a9dff;}</style></defs><path class="cls-2" d="m139.69,69.85c0,38.57-31.27,69.84-69.84,69.84S0,108.42,0,69.85,31.27,0,69.85,0s69.84,31.27,69.84,69.85Z"/><path class="cls-1" d="m90.23,84.16c-.05.08-.11.17-.18.27.06-.09.12-.17.18-.27h0Zm-.18.27c-.05.07-.11.14-.16.21.04-.04.07-.09.1-.13.02-.03.04-.05.05-.08h0Zm-.16.21c-.07.09-.14.17-.21.26-.02.03-.04.05-.06.08,0,0,0,0,0,0,.09-.11.18-.22.27-.34h0Zm-.27.34c-.17.22-.35.43-.52.64.13-.16.32-.4.52-.64h0Z"/><path class="cls-1" d="m89.69,53.81s.04.05.06.07c.07.09.14.18.21.26-.09-.11-.18-.22-.27-.33h0Zm.27.33c.06.07.11.14.16.21-.02-.03-.04-.05-.05-.08-.04-.04-.07-.09-.11-.13h0Zm.16.21c.07.1.13.19.18.27-.06-.09-.12-.18-.18-.27h0Z"/><path class="cls-1" d="m89.41,53.46s.08.1.12.15c-.04-.05-.08-.1-.12-.15h0Zm.12.15c.05.07.11.13.16.2,0,0,0,0,0,0-.05-.07-.11-.13-.16-.2h0Zm.16.2s0,0,0,0c0,0,0,0,0,0h0Z"/><path class="cls-1" d="m69.52,29.35c-.12,0-.38,3.38-.48,5.56-.74.02-1.49.06-2.23.08-.71.07-1.42.17-2.13.25-.35.05-.71.07-1.06.14-.35.07-.69.14-1.04.22-.35.07-.69.14-1.04.22-.34.07-.69.14-1.02.25-.67.2-1.34.4-2,.59-.34.09-.65.22-.98.34-.32.12-.64.25-.96.37-.32.12-.64.25-.96.37-.32.12-.61.29-.92.43-.61.29-1.87.8-2.44,1.17-.58.35-1.18.7-1.8,1.06-.58.41-1.18.84-1.78,1.27-.62.41-1.16.93-1.75,1.41-.29.25-.58.49-.86.74-.28.26-.54.54-.81.8l-.8.81c-.27.27-.54.54-.77.84-.48.58-.97,1.16-1.44,1.73-.86,1.21-1.73,2.36-2.37,3.55-.17.29-.33.58-.48.85-.15.27-.3.54-.4.81-.22.53-.41,1-.56,1.39-.15.39-.26.71-.34.93-.06.22-.09.35-.09.35-.14.47-.26.94-.2.94.02,0,.07-.07.15-.24.14-.3.28-.74.51-1.19.22-.45.47-.93.69-1.37.42-.89.89-1.56.95-1.56,0,0,0,0,0,0,.01,0-.07.15-.19.37-.06.11-.14.23-.21.37-.07.14-.14.29-.21.44.05.02-.1.51-.29,1.05-.19.55-.45,1.15-.55,1.46-.09.32-.48,1.4-.82,2.5-.16.63-.31,1.26-.43,1.74-.27,0-.56,0-.85,0-.58,0-1.21,0-1.82,0-2.66-.02-5.35-.05-8.06-.07-.02,0-.03,0-.05,0-.1,0-.2,0-.29,0-.18,0-.36,0-.52.05-.13.03-.23.07-.34.13-.11.06-.21.16-.29.27-.13.2-.2.43-.22.73v.87s-.02,2.09-.02,2.09c0,1.39-.01,2.79-.02,4.18-.02,2.88-.03,5.75-.05,8.56-.01.31.07.58.17.78.1.22.35.42.55.49.19.09.44.12.71.12.04,0,.07,0,.11,0h.76c.67.01,1.34.02,2,.03,1.32.02,2.63.04,3.92.06.64.03,1.93.08,2.58.11.44,0,.89.01,1.34.02.03.15.06.3.1.46.09.39.18.81.28,1.24.14.43.28.86.42,1.29.14.43.29.86.42,1.25.14.39.31.74.45,1.04.19.42.23.56.2.56-.05,0-.34-.47-.39-.47,0,0,0,0,0,0,.31.6.52,1.06.73,1.52.22.45.49.88.84,1.46,0,0,.03.06.08.16.06.1.14.24.24.42.1.18.22.39.37.62.16.22.33.47.51.73.37.51.75,1.09,1.15,1.62.43.51.83.99,1.16,1.38,0,0,.11.13.39.44.13.16.32.36.57.6.25.25.54.54.9.9.38.38.47.45.5.45,0,0,.01,0,.01,0t-.04.04c.24.23.64.54,1.02.88.38.33.76.67,1.02.87t-.03.04c.13.1.26.21.4.31l.41.29.82.59c.54.4,1.08.81,1.67,1.13t-.03.04c.29.18.57.35.79.49.21.13.35.23.35.24t-.03.05c.55.41,1.8.93,1.77.98t.02-.05c.3.15.59.3.88.44.28.14.56.29.84.39.56.23,1.08.44,1.59.65.25.1.5.21.75.31.25.08.5.16.75.24.49.16.98.31,1.46.47.16.05.32.11.49.16.17.05.33.08.5.12.34.08.68.16,1.03.24.7.16,1.41.34,2.15.42.74.1,1.49.21,2.26.29.67.03,1.35.06,2.04.09,0,2.04,0,4.08.03,6.12.03-2.23.07-3.95.06-6.12.07,0,.14,0,.21,0,.03,0,.07,0,.1,0,.2,0,.4,0,.6,0,0,.47.01.93.02,1.37,0,.15.02.22.03.22.03,0,.07-.53.1-1.59.06,0,.13,0,.19,0,0,.06,0,.13,0,.19,0-.06,0-.13,0-.19,2.8-.06,5.63-.44,8.26-1.13.52-.14,1.02-.34.88-.34-.04,0-.12.01-.26.04.64-.2,1.29-.4,1.93-.59.32-.09.51-.19.65-.25.13-.06.21-.1.28-.14.15-.08.3-.16.92-.41l.93-.39c.31-.13.6-.3.9-.45l1.79-.92c1.13-.72,2.32-1.36,3.38-2.2l.81-.59.41-.3c.13-.1.26-.22.38-.33l1.53-1.31c.26-.21.49-.46.73-.7l.71-.71.71-.72c.23-.24.44-.51.66-.76.43-.52.87-1.02,1.29-1.54l1.17-1.64c.41-.53.73-1.12,1.08-1.7l.52-.87.26-.43.22-.45.88-1.81c.16-.3.26-.62.39-.93l.36-.94.36-.94c.12-.31.2-.64.29-.96l.33-1.13c.45,0,.81,0,.81.03v.05c.15,0,.32,0,.51,0,.34,0,.71,0,.99,0,.25,0,.43,0,.43.02v-.05c2.58,0,4.51.03,6.44.05.22,0,.44,0,.66,0,.02,0,.04,0,.06,0,.13,0,.26,0,.39,0,.17,0,.34,0,.49-.05.14-.04.26-.09.36-.15.11-.06.23-.16.32-.26.1-.11.17-.21.22-.33.06-.12.11-.25.13-.41.04-.32.01-.67.02-1,0-.19,0-.38,0-.57,0-.35,0-.7,0-1.05,0-1.42,0-2.89,0-4.37,0-1.49-.01-3-.02-4.5,0-.75-.01-1.5-.02-2.24,0-.37,0-.74,0-1.11,0-.23,0-.46,0-.7-.01-.35.03-.73-.07-1.02-.04-.13-.09-.24-.15-.33-.06-.1-.15-.2-.24-.28-.19-.16-.34-.21-.47-.25-.07-.02-.13-.03-.16-.03-.03,0-.03,0-.02.01.03.02.16.06.35.17-.19-.1-.44-.18-.72-.18-.01,0-.03,0-.04,0h-1.81c-1.29,0-.64.08-1.93.08-2.76.04-5.51.05-8.27.06-.06-.22-.13-.44-.19-.66-.08-.28-.16-.55-.23-.82-.09-.27-.19-.53-.29-.79-.2-.52-.4-1.04-.61-1.59-.22-.54-.51-1.06-.79-1.64.02-.01.07-.04-.21-.61-.19-.44-.46-.85-.71-1.28-.25-.42-.51-.85-.76-1.28-.54-.83-1.14-1.61-1.66-2.37-.59-.71-1.14-1.37-1.62-1.95-.5-.56-.96-1.01-1.27-1.38-.22-.23-.42-.49-.76-.84-.35-.33-.83-.77-1.56-1.39l1.47,1.26s.05-.06.05-.06c-1.87-1.79-4.54-3.65-6.81-4.89,0,0,.02-.05.04-.07l-1.16-.58c-.11-.08-.14-.11-.11-.11.05,0,.24.07.53.2.49.23,1.3.56,2.16,1.11.44.26.91.54,1.38.83.47.3.92.65,1.37.97.23.16.45.32.67.48.11.08.22.16.32.23.1.08.2.17.29.25.39.33.74.63,1.05.89.02-.02.05-.06.07-.08l-.99-.85.03-.04c.37.32.74.63,1.1.94.36.31.72.61,1.03.94.32.33.65.65.96.97.32.32.64.64.92.99.29.34.58.69.87,1.04.29.35.59.69.85,1.07.07.1.14.2.22.3-.03-.04-.06-.08-.09-.12.02-.02.04-.03-.3-.51-.01-.02-.03-.04-.04-.06.01.02.03.04.04.06.37.52.76,1.07,1.16,1.63.1.15.21.29.31.44.1.15.19.31.28.47.19.32.38.63.57.95.19.32.38.63.57.95.16.33.33.65.49.97.16.32.32.64.48.95.15.31.32.61.43.92.06.15.1.22.11.22.04,0-.17-.71-.84-2.06-.22-.44-.4-.86-.62-1.23-.22-.37-.43-.73-.64-1.08-.21-.35-.42-.71-.64-1.08-.25-.35-.51-.72-.8-1.13l.04-.03c.19.27.41.57.63.89.23.32.42.69.64,1.04.21.35.42.71.62,1.05.1.17.2.33.3.49.08.16.16.32.24.47.04.08.07.12.07.12.01,0-.08-.22-.17-.44-.09-.22-.2-.43-.19-.43,0,0,.03.03.08.11.32.58.59,1.19.91,1.77-.22-.45-.46-.93-.71-1.43-.25-.5-.58-.98-.87-1.48-.15-.25-.3-.5-.45-.74-.07-.12-.15-.25-.22-.37-.08-.12-.16-.23-.24-.35-.32-.46-.63-.9-.92-1.31-.19-.27-.35-.56-.51-.76-.15-.2-.24-.34-.22-.36-2.07-2.61-4.09-4.36-5.55-5.75-.25-.22-1.06-.81-2.01-1.5-.49-.32-1.04-.63-1.55-.95,0,0,0,0-.01,0-1.11-.71-2.31-1.27-3.49-1.88-.67-.27-1.34-.55-2-.82l-.5-.21c-.17-.06-.34-.11-.52-.17l-1.04-.33-1.04-.33c-.35-.11-.71-.17-1.06-.25-.71-.15-1.42-.33-2.13-.46l-2.16-.29-.54-.07c-.18-.02-.36-.02-.54-.03l-1.09-.05c-.18-.02-.36-.03-.54-.03-.04-.3-.07-.47-.07-.47-.04-.42-.1-.84-.15-.84-.02,0-.04.07-.06.25,0,.27-.01.65-.02,1.05-.15,0-.29,0-.44,0-.01-.18-.02-.34-.02-.45-.05-.59-.21-4.15-.27-4.74-.01-.25-.03-.36-.05-.36h0Zm.66,8.65s-.03-.49-.03-1.03c.02,0,.03,0,.05,0h0s.04,0,.05,0c-.02.6-.04,1.03-.08,1.03h0Zm-1.39-1.02c-.01.49-.03.96-.02,1.61-.02,0-.05,2.77-.05,4.65-.36.01-.71.03-1.07.04-.51.04-1.01.11-1.52.16-.25.03-.5.05-.75.09l-.74.14c-1.98.33-3.88.95-5.65,1.68-.44.19-1.35.51-1.78.75-.42.23-.86.47-1.31.71-.43.27-.86.56-1.31.85-.45.28-.86.62-1.29.95l-.64.5c-.21.17-.4.36-.61.54-.39.37-.81.72-1.18,1.12-.37.4-.73.79-1.09,1.18-.34.4-.65.82-.97,1.22-.33.39-.6.81-.86,1.21-.26.41-.52.78-.69,1.15-.18.37-.32.7-.44.98-.12.28-.2.5-.26.66-.05.16-.07.25-.07.25-.12.33-.21.68-.15.68.02,0,.06-.05.13-.15.11-.21.24-.51.43-.81.18-.3.38-.63.56-.93.34-.6.71-1.04.77-1.04,0,0,0,0,0,0,.01,0-.05.11-.15.25-.1.14-.23.34-.34.55.09.06-.44,1.37-.64,1.78-.07.22-.39.97-.67,1.73-.13.42-.26.84-.37,1.17-.2,0-.4,0-.59,0-2.65,0-4.83-.07-6.51-.19-.21-.02-.68-.03-1.28-.03.07-.19.15-.39.24-.6.14-.36.28-.75.43-1.16.18-.4.37-.8.55-1.2.18-.4.36-.79.52-1.15.17-.36.36-.68.51-.97.2-.36.28-.49.3-.49.05,0-.16.55-.11.58.27-.58.49-1,.71-1.42.23-.42.51-.81.82-1.37,0,0,.04-.05.09-.14.06-.09.14-.22.24-.39.1-.16.22-.36.36-.58.15-.21.32-.44.49-.68.35-.48.73-1.02,1.11-1.52.4-.48.79-.93,1.1-1.3,0,0,.1-.13.35-.43.12-.16.3-.35.53-.58.23-.23.51-.52.84-.86.44-.45.43-.47.41-.49,0,0,0,0,0,0,0,0,0,0,0,0,.02.02.02.02.04.04.19-.26.57-.55.93-.86.36-.31.73-.61.96-.83t.03.04c.12-.11.23-.22.35-.32l.38-.29.77-.56c.52-.37,1.03-.75,1.57-1.07t.03.04c.53-.32,1.05-.64,1.09-.64,0,0,0,0,0,0t.03.05c.52-.33,1.6-.88,1.68-.88,0,0,0,0,0,0t-.02-.05c.28-.14.56-.28.82-.41.27-.13.52-.27.79-.36.53-.21,1.02-.4,1.5-.59.24-.09.47-.18.71-.27.24-.07.47-.14.71-.21.46-.14.92-.27,1.38-.4.15-.04.31-.09.46-.13.16-.04.32-.06.48-.1.32-.06.64-.13.97-.19.65-.13,1.32-.29,2.01-.35.69-.08,1.39-.18,2.1-.26.6-.03,1.2-.05,1.81-.08h0Zm23.34,19.77c-.18-.3-.37-.63-.57-.98-.21-.34-.46-.67-.69-1.01-.45-.69-.98-1.32-1.41-1.87-.26-.39-.58-.74-.54-.78-1.58-1.75-3.04-2.95-4.1-3.91-.18-.15-.77-.56-1.46-1.02-.36-.2-.75-.42-1.13-.63,0,0-.01,0-.02,0-.8-.48-1.66-.86-2.51-1.26-.48-.18-.96-.37-1.44-.55l-.36-.14-.37-.11-.74-.22-.74-.22c-.25-.07-.5-.11-.76-.17-.51-.1-1.01-.22-1.52-.31-.97-.12-1.94-.27-2.92-.29,0-1.62-.02-3.2-.04-4.67,0-.58-.03-1.12-.06-1.61,2.4.08,4.81.38,7.06.93.38.1.76.2.85.2.06,0,0-.04-.22-.13.61.19,1.21.37,1.82.56.31.08.49.17.62.21.13.04.21.07.29.09.15.04.31.08.9.32l.89.34c.3.12.57.27.86.41l1.71.84c1.08.67,2.22,1.27,3.22,2.05l.78.56.39.28c.13.1.24.21.37.31l1.45,1.24c.25.2.46.44.69.66l.67.68.67.68c.22.23.41.49.62.73.41.49.83.97,1.22,1.47l1.11,1.56c.39.51.69,1.07,1.02,1.61l.49.82.24.41.21.43.84,1.72c.15.28.25.59.37.88l.35.89.35.89c.11.3.19.61.29.91l.23.74c-1.23,0-2.46,0-3.69,0-1.69,0-3.38,0-5.07,0,0-.01,0-.02-.01-.03-.07-.19-.14-.38-.2-.56-.08-.18-.16-.36-.24-.53-.17-.35-.33-.71-.5-1.07-.18-.36-.41-.71-.63-1.1.02-.01.07-.04-.16-.43-.15-.3-.36-.57-.56-.86-.2-.29-.39-.57-.59-.86-.42-.55-.86-1.08-1.26-1.58-.44-.47-.84-.92-1.2-1.3-.37-.37-.7-.68-.93-.93-.16-.16-.3-.34-.55-.57-.25-.23-.59-.52-1.13-.94l1.07.84s.05-.06.05-.06c-1.36-1.2-3.28-2.43-4.9-3.26,0,0,.02-.05.04-.07l-.83-.38c-.08-.06-.1-.09-.06-.09.05,0,.18.04.37.12.35.15.93.36,1.55.72.31.17.65.36.99.55.34.19.66.43.99.64.32.22.65.41.93.64.28.22.54.42.77.59.02-.02.05-.06.07-.08l-.73-.57.03-.04c.27.21.54.42.8.63.26.21.53.4.76.63.24.22.48.44.71.65.23.22.48.42.69.66.22.23.43.46.65.7.22.23.45.46.64.72.11.14.23.28.34.42-.09-.11-.18-.22-.24-.3.02-.02.04-.03-.19-.33-.02-.02-.04-.05-.06-.07.02.02.04.05.06.07.56.71,1.22,1.48,1.76,2.33.15.21.3.43.44.64.14.22.26.44.39.66.25.44.53.85.74,1.26.05.1.09.14.1.14.04,0-.13-.5-.67-1.42-.18-.3-.32-.59-.5-.84-.17-.25-.34-.49-.5-.73-.17-.24-.33-.48-.5-.73-.19-.24-.39-.49-.61-.76l.04-.03c.29.36.66.81.98,1.31.16.24.33.48.49.71.16.23.31.44.43.64.04.05.05.08.06.08.01,0-.06-.15-.13-.31-.08-.15-.16-.3-.15-.3,0,0,.02.02.07.07.25.39.48.81.74,1.2h0Zm-5.86-17.5s-.05-.03-.08-.04c.03.01.05.03.08.04.01,0,.03.02.04.02-.01,0-.03-.02-.04-.02h0Zm-26.8,8.25s-.01-.02-.02-.05c.4-.18.77-.38,1.14-.5.37-.13.72-.26,1.06-.38.17-.06.33-.12.5-.18.17-.04.33-.09.5-.13.33-.09.65-.17.96-.26.11-.03.21-.06.32-.08.11-.02.22-.04.33-.06.22-.04.45-.08.68-.12.46-.08.92-.19,1.41-.22.48-.05.97-.11,1.47-.16.31-.01.62-.02.93-.04,0,.28,0,.6,0,.98,0,.59.03.59.05.59h-.05c.05.59,0,1.78.03,2.37h-.05c.05,1.18,0,2.37.03,3.55h-.05c0,.59,0,1.18-.03,1.18h-.05c-.03.59.03,1.78-.03,1.78h.05c0,2.37-.03,4.15-.05,5.93-.04,1.71-.06,3.57-.06,5.49-.31-.3-.61-.59-.91-.88-.14-.14-.31-.27-.35-.27-.02,0-.01.04.05.13-.22-.22-.44-.44-.67-.67-.44-.44-.28-.17-.72-.61-3.65-3.46-7.11-7.11-10.72-10.61.87.91,1.5,1.61,2.41,2.48-.02.02-.06.06.17.28,1.31,1.35,2.91,2.87,3.5,3.61.2.24.37.52,1.04,1.19-.22-.22-.44-.44-.67-.67-.02.02-.06.06-.06.06.87.91,1.96,2.04,2.83,2.95,0,0-.04.04-.06.06l.44.44c.03.06.04.09.01.09-.18,0-2.24-2.08-3.26-3.06-.02.02-.06.06-.08.08l.44.44-.04.04c-1.03-1.03-1.92-1.92-2.89-2.89-.02.02-.04.04.18.26-.89-.89-1.98-2.02-2.91-2.87-.05-.04-.08-.07-.1-.07-.05,0,.16.29.67.83.67.67,1.11,1.11,1.78,1.78l-.04.04c-.44-.44-1.09-1.13-1.56-1.56-.03-.03-.05-.04-.05-.04-.03,0,.29.37.25.37,0,0-.02-.01-.05-.04-.22-.22-.44-.44-.69-.65.67.67,1.57,1.54,2.22,2.22.2.24.41.48.37.52.69.67,1.27,1.29,1.75,1.84-2.08-.02-3.74-.06-5.66-.06-.45,0-.92,0-1.41,0,0-.03,0-.08-.64-.08-3.86-.03-8.37.03-10.3-.08-.64-.03-1.29-.11-3.22-.11h1.93v-.08c-1.34-.01-2.86-.03-4.36-.04.03-.03.08-.13.14-.29,1.32,0,2.62,0,3.58-.02v-.11h-1.29v-.05h6.31s-.02.07-.02.09c-.05.19-.07.28-.04.28.03,0,.12-.14.25-.37h1.88s0-.05-.64-.05c1.29,0,2.74,0,4.19,0s2.89,0,4.18-.03c.64-.03,0-.11-1.93-.13h-5.15v-.05c.86,0,2,.01,3.05.01.52,0,1.03,0,1.45-.01.64-.03-1.29-.08-.65-.11.65,0,1.29,0,1.93-.03-1.29,0-2.86.01-4.34.01-.74,0-1.45,0-2.1-.01-.64-.03-1.29-.05-1.29-.11-.11,0-.21,0-.32,0,.05-.1.11-.21.17-.32.13-.24.26-.51.4-.77.16-.26.32-.53.47-.8.15-.27.3-.53.44-.77.15-.24.3-.45.42-.64.15-.23.22-.32.25-.32.05,0-.11.39-.06.42.21-.39.39-.67.57-.96.19-.27.4-.54.64-.91,0,0,1.59-2.14,2.57-3.05,0,0,.07-.08.26-.29.18-.21.52-.5,1-.95.32-.3.31-.32.29-.34,0,0,0,0,0,0,0,0,0,0,0,0,.02.02.02.02.03.04.3-.34,1.04-.83,1.37-1.13t.03.04c.33-.3.72-.52,1.08-.77.37-.25.74-.49,1.13-.71t.03.05c.37-.21.73-.41.78-.41,0,0,0,0,0,0t.03.05c.37-.21,1.1-.57,1.19-.57,0,0,0,0,0,0h0Zm11.14,19.95c.02-3.8.06-7.52.13-11.08.03-.59.08-1.78.11-2.37.04-2.66.06-5.7.05-8.69,1.53.06,3.05.25,4.5.57.25.06.5.12.58.12.06,0,.04-.03-.13-.1.43.12.85.24,1.28.37.84.28.44.07,1.28.37l.63.22c.21.07.41.18.61.26l1.22.55c.77.44,1.58.83,2.3,1.35,1.51.95,2.86,2.13,4.11,3.4l.91.98.84,1.04c.29.34.53.71.79,1.08l.38.55c.13.18.25.37.36.56l.67,1.15c.23.38.4.8.6,1.19l.29.6c.1.2.17.41.25.62l.03.08c-1.67,0-3.35,0-5.02,0-2.09,0-4.19,0-6.28.01.42-.43.82-.85,1.21-1.25.87-.91,1.33-1.78,1.33-1.78.14-.2.27-.43.19-.43-.02,0-.06.02-.12.06-.45.41-1.5,1.46-1.64,1.46,0,0,0,0-.01,0-.02-.02.2-.24.43-.46-.07-.08.44-.89.66-1.11.18-.26,1.41-1.71,1.59-1.97.1-.12.12-.17.08-.17-.2,0-1.91,1.31-2.7,2-.14.12-.2.16-.23.16-.07,0,.12-.27.08-.31-.43.46-.7.63-1.13,1.09,0,0,0,0,0,0-.04,0-1.37,1.3-2.04,1.96,0,0-.2.24-.87.91-.22.22-.2.24-.19.26,0,0,0,0,0,0,0,0,0,0,0,0-.02-.02-.02-.02-.04-.04-.18.26-.67.67-.87.91t-.04-.04c-.41.48-.89.89-1.31,1.35t-.04-.04c-.21.21-.43.43-.46.43,0,0,0,0,0,0t-.04-.04c-.23.2-.62.65-.68.65,0,0,0,0,0,0t.04.04c-.89.89-1.57,1.54-2.26,2.18-.46.42-.93.87-1.42,1.35h0Zm10.89-21.31s-.01,0-.02,0c0,0,.01,0,.02,0,.02,0,.04.02.06.03-.02,0-.04-.02-.06-.03h0Zm2.44,22.8c-2.37,0-4.15-.03-5.93-.05-1.8-.04-3.77-.06-5.82-.06,1.14-1.1,2.26-2.18,3.36-3.2.24-.2.72-.61.96-.81,1.42-1.33,3.05-2.97,4.52-4.48,1.07.02,2.09.03,3.2.03.45,0,.92,0,1.41,0,0,.03,0,.08.64.08,2.03.01,4.24,0,6.16.01l.3.76h-1.31s0,.05.64.05c-1.29,0-2.74,0-4.19,0-1.45,0-2.89,0-4.18.03-.64.03,0,.11,1.93.13h5.15v.05c-.86,0-2-.01-3.05-.01-.52,0-1.03,0-1.45.01-.64.03,1.29.08.64.11-.64,0-1.29,0-1.93.03,1.29,0,2.86-.01,4.34-.01.74,0,1.45,0,2.1.01.64.03,1.29.05,1.29.11.42,0,.82,0,1.21,0,2.66,0,4.83.08,6.51.19.32.03,1.28.03,2.41.03.58,0,1.21,0,1.82,0,2.58.02,5.18.05,7.8.07h.15s.02,0,.02,0c.04,0,.09,0,.11.05.01.05,0,.1,0,.15v.17s-.01,2.09-.01,2.09c0,1.39-.01,2.79-.02,4.17-.02,2.67-.03,5.31-.05,7.91v.11s-.04.05-.07.05c0,0-.01,0-.02,0h-.11s-.05,0-.05,0h-.2c-.67-.01-1.34-.02-2-.03-1.32-.02-2.63-.04-3.92-.06-.64-.03-1.93-.08-2.58-.11-2.32-.04-4.91-.05-7.52-.05-3.17,0-6.39.02-9.21.05-2.58.03-4.51.32-4.51.32-.64.05-1.29.16-.64.21,1.29.03,4.5.03,4.5.13,0,.03-.64.03-1.29.03,0,.11-1.93.32-2.57.32-.44.04-2.37.12-3.76.19-.21-.21-.44-.46-.59-.59t.04-.04c-.48-.41-.89-.89-1.35-1.31t.04-.04c-.22-.22-.44-.44-.43-.46t.04-.04c-.2-.24-.69-.65-.65-.69t-.04.04c-.89-.89-1.54-1.57-2.18-2.26-.42-.46-.87-.93-1.35-1.42,3.8.02,7.52.06,11.08.13.59.03,1.78.08,2.37.11,2.14.04,4.52.05,6.93.05,2.92,0,5.88-.02,8.48-.05,2.37-.03,4.15-.32,4.15-.32.59-.05,1.19-.16.59-.21-1.19-.03-4.15-.03-4.15-.13,0-.03.59-.03,1.18-.03,0-.11,1.78-.32,2.37-.32.59-.05,4.15-.21,4.74-.27,1.78-.08-3.56-.48-5.93-.56-1.19-.05,0-.13,0-.21-.17,0-.33,0-.49,0-.73,0-1.26-.04-1.99-.04-.15,0-.31,0-.49,0,0-.03-3.55-.05-5.33-.05,0,0-.59.03-2.37.03-.59,0-.59.03-.59.05h0s0,0,0,0v-.05c-.22.02-.52.02-.84.02-.35,0-.73,0-1.05,0-.18,0-.35,0-.48,0v-.05c-.44.02-.88.02-1.31.02-.48,0-.96,0-1.44,0-.27,0-.54,0-.81,0v-.05c-.59,0-1.19,0-1.19-.03v-.05c-.13,0-.3,0-.47,0-.31,0-.65,0-.91,0-.23,0-.4,0-.4-.02v.05h0Zm8.82-7.74c-.1-.26-.19-.51-.28-.76,1.72,0,3.2.02,4.11.07.64.03,1.29.11,3.22.11h-1.93v.08c1.07.01,2.24.02,3.44.03l.09.3c-1.07,0-2.09,0-2.88.01v.11h1.29v.05h-7.05Zm8.65-.17c-.03-.1-.06-.2-.08-.3,1.69.02,3.41.03,4.92.05v.08h1.29c.97.14-2.82.16-6.12.17h0Zm-69.51.43c-.89-.13,2.23-.16,5.31-.17-.03.17-.04.26-.04.29-1.38-.01-2.76-.03-3.99-.04v-.08h-1.29Zm20.66.58c2.77,0,5.54,0,8.3-.03.3.35.56.67.78.96.14.2.81.86,1.42,1.47,1.39,1.46,2.83,2.93,4.27,4.4-1.8.01-3.59.03-5.32.05-.59,0-1.18.05-.59.11h-1.78c-1.18,0-.59.08-1.78.08-3.6.05-7.21.06-10.81.06-3.33,0-6.66-.01-9.99-.01-2.55,0-5.1,0-7.65.03,1.92.02,3.45.06,5.22.06.42,0,.85,0,1.3,0,0,.03,0,.08.59.08,3.56.03,7.71-.03,9.48.08.59.03,1.18.11,2.96.11h-1.78v.08c2.37.03,5.34.05,7.71.08v.08h1.18c1.19.19-5.34.16-8.3.19v.11h1.19v.05h-7.71s0,.05.59.05c-1.19,0-2.52,0-3.86,0-1.33,0-2.66,0-3.85.03-.59.03,0,.11,1.78.13h4.74v.05c-.79,0-1.84-.01-2.81-.01-.48,0-.94,0-1.34.01-.59.03,1.19.08.59.11-.59,0-1.19,0-1.78.03,1.19,0,2.64-.01,4-.01.68,0,1.34,0,1.93.01.59.03,1.19.05,1.19.11.38,0,.76,0,1.12,0,2.45,0,4.45.08,5.99.19.3.03,1.18.03,2.22.03.52,0,1.08,0,1.62,0,4.54.06,9.2.08,13.82.1-.4.41-.8.82-1.18,1.22-.17.17-.32.36-.26.36.02,0,.05-.02.12-.06-.22.22-.44.44-.67.67-.44.44-.17.28-.61.72-1.12,1.18-2.26,2.34-3.41,3.49-1.53-.14-4.08-.29-5.56-.33-1.29-.05,0-.13,0-.21-.19,0-.36,0-.53,0-.8,0-1.37-.04-2.16-.04-.17,0-.34,0-.53,0,0,0-.06,0-.17,0-.11,0-.27,0-.46,0-.39,0-.94-.01-1.54-.02-1.21,0-2.65-.01-3.62-.02,0,0-.64.03-2.57.03-.64,0-.64.03-.64.05v-.05c-.24.02-.56.02-.91.02-.38,0-.79,0-1.14,0-.2,0-.38,0-.52,0v-.05c-.47.02-.95.02-1.43.02-.52,0-1.04,0-1.56,0-.29,0-.58,0-.87,0v-.05c-.64,0-1.29,0-1.29-.03v-.05c-.15,0-.32,0-.51,0-.34,0-.71,0-.99,0-.25,0-.43,0-.43-.02v.05c-2.58,0-4.51-.03-6.44-.05h-.24s-.06,0-.06,0c0,0,0,0,0,0h0s-.02-.01-.02-.01c-.01,0-.01-.02,0-.03h0c0-.17,0-.32,0-.48,0-.35,0-.7,0-1.05,0-1.42,0-2.89,0-4.38,0-1.49-.01-3-.02-4.5,0-.75-.01-1.5-.02-2.24,0-.37,0-.74,0-1.11v-.27s0-.12,0-.12h0s0-.03,0-.03c-.02-.04.05-.07-.07-.13h1.15c1.29,0,.64-.08,1.93-.08,3.91-.05,7.83-.06,11.74-.06,3.62,0,7.23.01,10.85.01h0Zm17.73,31.78c.03-1.41.09-2.63.17-3.65.04-.44.03-2.22.03-3.84.06-4.66.08-9.44.11-14.16,1.21,1.25,2.4,2.48,3.51,3.68.2.24.61.72.81.96,1.72,1.83,3.96,4.04,5.78,5.78.91.87,1.78,1.33,1.78,1.33.16.11.33.21.4.21.04,0,.04-.04-.03-.14-.43-.46-1.54-1.57-1.46-1.65,0,0,0,0,0,0,.03,0,.25.21.46.43,0,0,.01,0,.02,0,.16,0,.88.46,1.09.67.26.18,1.71,1.41,1.97,1.59.08.07.13.1.16.1.18,0-1.25-1.88-1.98-2.72-.16-.19-.18-.24-.14-.24.05,0,.21.1.27.1,0,0,.01,0,.02,0-.46-.43-.63-.7-1.09-1.13.02-.02-1.29-1.37-1.96-2.04,0,0-.24-.2-.91-.87-.06-.06-.1-.1-.13-.13,1.5.11,3.43.22,4.64.26,1.29.05,0,.13,0,.21.19,0,.36,0,.53,0,.8,0,1.37.04,2.16.04.17,0,.34,0,.53,0,0,0,.06,0,.17,0,.11,0,.27,0,.46,0,.39,0,.94.01,1.54.02,1.21,0,2.65.01,3.62.02,0,0,.37-.02,1.39-.02-.08.19-.16.38-.23.57-.08.2-.16.4-.24.59-.09.19-.19.38-.28.56-.18.37-.37.75-.56,1.13-.2.38-.43.76-.66,1.18,0,0-.01,0-.02,0-.03,0-.1.05-.29.38-.17.31-.4.6-.6.9-.21.3-.42.6-.63.91-.45.58-.91,1.14-1.34,1.67-.47.49-.91.95-1.29,1.36-.41.38-.78.68-1.05.9-.19.15-.37.3-.66.5-.29.2-.68.48-1.23.91l1.11-.87s-.05-.06-.05-.06c-1.45,1.2-3.46,2.43-5.15,3.23,0,0-.02-.05-.04-.07l-.85.39s-.08.02-.1.02c-.08,0,.05-.09.32-.24.33-.19.91-.44,1.53-.82.31-.18.65-.37.99-.57.34-.2.67-.44,1-.66.32-.23.66-.42.93-.65.28-.22.54-.43.77-.61-.02-.02-.05-.06-.07-.08l-.73.57-.03-.04c.27-.21.54-.42.8-.63.26-.21.52-.4.76-.63.24-.22.47-.43.71-.65.23-.22.47-.42.68-.66.22-.23.43-.46.65-.69.22-.23.44-.46.64-.72.03-.04.07-.08.1-.12,0,0,0,0-.02,0-.03,0-.09.05-.31.33.57-.72,1.25-1.5,1.81-2.37.15-.21.29-.43.44-.64.14-.22.26-.44.38-.66.24-.44.5-.86.69-1.27.04-.11.06-.17.05-.17-.03,0-.3.44-.84,1.3-.18.29-.32.58-.49.82-.17.25-.33.48-.49.72-.16.24-.32.47-.49.72-.19.23-.39.48-.6.74l-.04-.03c.29-.36.66-.79.97-1.27.16-.23.32-.47.48-.69.16-.22.3-.44.4-.64.03-.06.04-.09.04-.09-.01,0-.1.13-.19.26-.09.13-.19.25-.21.25,0,0,0-.02.04-.08.25-.38.46-.78.67-1.19-.17.3-.35.61-.54.95-.2.33-.43.65-.65.98-.43.67-.94,1.28-1.38,1.8-.28.33-.6.62-.66.62,0,0,0,0,0,0-1.47,1.72-2.99,2.75-4.13,3.45-.2.1-.76.47-1.41.91-.33.19-.69.39-1.04.59-.78.43-1.61.77-2.42,1.14-.45.16-.9.33-1.36.49l-.34.12-.35.1-.7.19-.7.19c-.23.07-.47.1-.71.15-.47.09-.95.19-1.42.27-.95.1-1.9.24-2.86.24,0,0-.01,0-.02,0-.13,0-.25,0-.38.01h0Zm-10.4-13.2c1.09-1.13,2.04-1.96,2.8-2.53.2-.14.86-.81,1.47-1.42,1.46-1.39,2.93-2.83,4.4-4.27.01,1.8.03,3.59.05,5.32,0,.42.03.84.06.84.01,0,.03-.07.05-.25v1.78c0,1.18.08.59.08,1.78.06,3.98.06,7.96.06,11.93-.35-.02-.7-.04-1.04-.05-.47-.05-.94-.12-1.41-.18-.23-.03-.47-.05-.7-.1l-.69-.15c-1.84-.35-3.57-.99-5.17-1.74-.39-.22-1.18-.61-1.54-.87-.38-.22-.77-.45-1.17-.69-.38-.26-.78-.53-1.17-.8-.41-.26-.78-.58-1.17-.88l-.58-.46c-.19-.15-.37-.33-.55-.49-.36-.34-.75-.65-1.08-1.01-.34-.36-.68-.71-1.01-1.06-.32-.36-.61-.74-.91-1.09-.31-.35-.56-.73-.82-1.09-.25-.36-.52-.68-.73-.99-.21-.31-.41-.57-.59-.79-.17-.22-.32-.4-.42-.52-.09-.12-.14-.19-.14-.19-.16-.26-.35-.5-.41-.5-.03,0-.03.06.02.19.1.2.21.49.38.79.16.3.34.61.51.91.31.6.63,1.07.58,1.1,0,0,0,0,0,0-.02,0-.08-.09-.18-.22-.1-.14-.23-.32-.34-.52,0,0,0,0,0,0-.12,0-.97-1.03-1.17-1.43-.12-.2-.53-.89-.91-1.61-.09-.19-.17-.37-.26-.55,2.17,0,4.3-.02,6.24-.04,2.58-.03,4.51-.32,4.51-.32.65-.05,1.29-.16.65-.21-1.29-.03-4.51-.03-4.51-.13,0-.03.64-.03,1.29-.03,0-.11,1.93-.32,2.57-.32.46-.04,2.58-.13,3.98-.2-2.31,2.31-4.64,4.59-6.91,6.94.91-.87,1.61-1.5,2.48-2.41,0,0,.01.01.03.01.03,0,.1-.03.25-.18,1.35-1.31,2.87-2.91,3.61-3.5.22-.19.48-.35,1.04-.89,0,0,0,0,0,0-.17.17-.35.35-.52.52.02.02.06.06.06.06.19-.19.4-.39.61-.59.21-.01.38-.02.48-.03-.23.23-.45.45-.62.64.02.02.06.06.07.08l.44-.44.04.04c-1.03,1.03-1.92,1.92-2.89,2.89,0,0,.01.01.02.01.03,0,.08-.03.24-.19-.89.89-2.02,1.98-2.87,2.91-.06.07-.08.11-.06.11.05,0,.33-.22.82-.68.67-.67,1.11-1.11,1.78-1.78l.04.04c-.44.44-1.13,1.09-1.56,1.56-.03.04-.04.06-.03.06.03,0,.33-.26.37-.26,0,0,0,.02-.03.06-.22.22-.44.44-.65.69.67-.67,1.54-1.57,2.22-2.22.22-.19.44-.37.51-.37,0,0,.01,0,.01,0h0Zm4.06-5.27l.44-.44s.06-.03.07-.03c.17,0-1.21,1.4-2.3,2.51-.11-.02-.24-.03-.39-.05.71-.69,1.47-1.42,2.12-2.04,0,0,.04.04.06.06h0Zm12.41,19.53c.46-.13.92-.26,1.38-.4.91-.3.43-.23,1.33-.56l.67-.26c.22-.09.43-.2.65-.3l1.29-.62c.82-.49,1.68-.92,2.45-1.48,1.6-1.04,3.06-2.29,4.4-3.65l.98-1.04.9-1.11c.31-.36.57-.76.85-1.15l.41-.59c.14-.19.27-.39.38-.6l.72-1.24c.24-.41.42-.86.63-1.28l.31-.65c.1-.22.18-.44.26-.67l.25-.65c.32,0,.71,0,1.17,0,.64,0,.64-.03.64-.05v.05c.24-.02.56-.02.91-.02.38,0,.79,0,1.14,0,.2,0,.38,0,.52,0v.05c.47-.02.95-.02,1.43-.02.52,0,1.04,0,1.56,0,.29,0,.58,0,.87,0v.05c.16,0,.31,0,.46,0-.11.35-.21.69-.32,1.02-.09.29-.18.58-.27.86-.1.28-.22.55-.33.82-.22.55-.44,1.09-.66,1.65-.23.56-.53,1.11-.81,1.72,0,0,0,0-.01,0-.03,0-.1.06-.35.57-.21.46-.49.89-.75,1.33-.26.44-.53.89-.8,1.33-.57.86-1.18,1.68-1.74,2.47-.62.73-1.2,1.41-1.71,2.01-.54.57-1.03,1.02-1.4,1.36-.25.22-.49.45-.87.77-.39.31-.91.73-1.67,1.38l1.52-1.3s-.05-.06-.05-.06c-1.96,1.8-4.73,3.66-7.07,4.88,0,0-.02-.05-.04-.07l-1.18.59c-.08.03-.12.04-.15.04-.07,0,.12-.12.48-.32.47-.28,1.28-.64,2.14-1.21.44-.27.9-.56,1.38-.85.47-.31.92-.66,1.37-.99.23-.17.45-.33.67-.49.11-.08.22-.16.32-.24.1-.09.2-.17.29-.25.38-.33.74-.64,1.05-.91-.02-.02-.05-.06-.07-.08l-.99.85-.03-.04c.37-.32.74-.63,1.1-.94.36-.31.72-.6,1.03-.94.32-.33.64-.65.96-.97.32-.32.64-.64.92-.99.29-.34.58-.69.87-1.03.29-.35.59-.69.85-1.07.12-.17.25-.35.38-.53-.09.13-.18.25-.25.35,0,0,0,0-.01,0-.03,0-.09.06-.36.44-.01.02-.03.04-.04.06.02-.02.03-.04.04-.06.37-.51.76-1.06,1.15-1.62.1-.15.21-.29.31-.44.1-.15.19-.31.28-.47.19-.31.38-.63.56-.94.19-.32.38-.63.56-.94.16-.33.32-.65.47-.97.15-.32.31-.64.45-.95.15-.31.3-.61.4-.92.05-.16.07-.24.06-.24-.03,0-.34.67-1.01,1.95-.22.43-.4.85-.61,1.21-.22.37-.43.71-.63,1.06-.21.35-.42.7-.63,1.06-.25.35-.51.71-.79,1.11l-.04-.03c.19-.26.4-.56.63-.87.23-.31.42-.67.63-1.01.21-.35.42-.7.61-1.03.1-.17.19-.33.28-.48.08-.16.15-.32.22-.46.04-.09.05-.13.05-.13-.01,0-.12.2-.24.39-.11.2-.24.38-.26.38,0,0,0-.04.06-.12.31-.57.58-1.16.84-1.75-.21.44-.44.91-.68,1.4-.24.49-.56.96-.84,1.45-.14.24-.29.49-.43.73-.07.12-.14.24-.21.36-.08.11-.16.22-.24.34-.32.44-.63.87-.91,1.26-.2.25-.39.52-.56.69-.16.16-.27.27-.3.27,0,0,0,0,0,0-1.97,2.56-4.04,4.16-5.6,5.27-.28.17-1.06.72-1.96,1.38-.46.3-.97.6-1.46.9-1.08.66-2.25,1.18-3.4,1.75-.64.25-1.28.5-1.92.75l-.48.19c-.16.06-.33.1-.49.15l-.99.3-.99.3c-.33.1-.67.15-1.01.23-.68.14-1.35.3-2.03.42l-2.06.26-.51.06c-.17.02-.34.02-.52.02l-1.03.04c-.31.02-.61.03-.92.04,0-1.27,0-2.6,0-3.69.03-.59.05-1.19.11-1.19,0-.49,0-.95,0-1.4,1.92-.06,3.86-.31,5.66-.77.39-.1.76-.25.6-.25-.03,0-.09,0-.17.02h0Zm-36.07-10.11c-.06,0-.34-.39-.64-.86-.3-.48-.66-1.04-.76-1.35-.14-.3-.62-1.33-1.06-2.39-.17-.48-.33-.95-.47-1.36,1.87.02,3.86.03,5.86.03.85,0,1.71,0,2.56,0,.08.28.16.57.24.87.11.3.23.6.34.9.12.3.24.6.34.87.12.27.25.51.36.72.15.3.18.4.15.4-.05,0-.28-.29-.33-.29,0,0,0,0,0,0,.25.41.42.72.59,1.04.18.31.38.61.66,1,0,0,.02.04.06.11.04.07.11.17.19.29.08.12.17.27.29.42.12.15.25.32.39.5.28.35.58.75.89,1.1.32.35.63.67.87.94,0,0,.09.09.3.3.21.22.58.52,1.1,1.01.27.25.34.29.37.29,0,0,.01,0,.02,0t-.03.04c.39.28,1.12.89,1.51,1.17t-.03.04c.39.28.8.52,1.19.8.39.27.79.55,1.22.76t-.03.05c.42.24.84.47.82.49t-.03.05c.4.28,1.31.61,1.28.67t.02-.05c.44.19.84.41,1.24.56.4.15.78.3,1.14.44.18.07.36.14.54.21.18.06.36.11.53.16.35.11.7.21,1.04.32.12.04.23.07.35.11.12.03.24.06.36.08.24.05.49.11.74.16.5.11,1.01.23,1.54.28.53.07,1.06.14,1.61.2.4.02.8.03,1.2.05,0,2.09,0,4.17,0,6.26-.62-.03-1.24-.07-1.86-.09-.68-.07-1.35-.18-2.02-.27-.33-.05-.67-.08-1-.15-.33-.07-.65-.15-.98-.22-.33-.07-.65-.15-.98-.22-.32-.07-.65-.14-.96-.25-.63-.2-1.26-.4-1.88-.6-.32-.09-.61-.22-.91-.35-.3-.13-.6-.25-.9-.37-.3-.12-.59-.25-.89-.37-.29-.13-.57-.29-.85-.43-.55-.32-1.68-.89-2.19-1.28-.54-.34-1.09-.68-1.65-1.03-.54-.4-1.09-.8-1.64-1.21-.57-.39-1.08-.88-1.62-1.33-.27-.23-.54-.46-.81-.69-.26-.24-.5-.5-.76-.75l-.75-.76c-.25-.25-.5-.5-.72-.78-.46-.54-.91-1.07-1.36-1.6-.81-1.12-1.64-2.18-2.26-3.28-.16-.27-.33-.53-.49-.78-.16-.25-.32-.48-.44-.72-.26-.47-.51-.88-.72-1.22-.21-.34-.38-.61-.51-.8-.1-.19-.17-.3-.17-.3-.19-.4-.41-.79-.47-.79-.03,0-.02.08.04.27.12.3.25.72.46,1.16.21.44.43.91.64,1.34.38.89.8,1.58.75,1.61,0,0,0,0,0,0-.01,0-.1-.13-.23-.33-.06-.1-.14-.22-.21-.35-.07-.14-.14-.28-.21-.43,0,0,0,0,0,0h0Zm28.89,7.77h.08c.03-2.37.05-5.34.08-7.71h.08v-1.19c.02-.1.03-.14.04-.14.14,0,.12,5.72.14,8.44h.11v-1.19h.05v3.07c-.23,0-.46,0-.69-.02,0-.03,0-.06,0-.09.03-.59.11-1.18.11-2.96v1.78h0Zm11.84-1.33s0,0,0,0c0,0,0,0,0,0-.02,0-.03.02-.05.03.02,0,.03-.02.05-.03h0Zm-.5.25c.09-.04.18-.08.26-.12-.09.04-.18.09-.26.12h0Zm-10.71,10.71c-.27,0-.54,0-.81-.02,0-2.2,0-4.5.02-6.26.09,0,.19,0,.28.01.02,0,.03,0,.05,0,.14,0,.28,0,.42,0v2.58s.05,0,.05-.59c0,1.31,0,2.81,0,4.29h0Zm15.84-3.99c.07-.04.13-.07.19-.11-.03.02-.05.03-.08.05-.04.02-.08.04-.11.06,0,0,0,0,0,0,0,0,0,0,0,0h0Zm-.2.11c-.12.06-.24.13-.37.18.12-.06.24-.12.37-.18h0Zm-15.43,3.88s-.03,0-.04,0v-3.1h.05c0,.87-.01,2.06-.01,3.1h0Zm26.86-52.65c.15.22.35.49.55.77-.19-.26-.37-.52-.55-.77h0Z"/><path class="cls-1" d="m97.98,87.56h0s0,0,0,0h0Zm0,.01c-.05.08-.1.16-.15.23.02-.02.04-.05.05-.07.03-.06.06-.11.1-.16h0Z"/><path class="cls-1" d="m97.47,88.32s0,0,0,0c0,0,0,.01-.01.02,0,0,0-.01.01-.02h0Zm-.01.02s0,.01-.01.02c0,0,0-.01.01-.02h0Z"/><path class="cls-1" d="m97.07,88.88c-.04.06-.08.11-.11.16.04-.05.07-.11.11-.16h0Z"/><path class="cls-1" d="m98.19,87.22c-.07.11-.13.23-.2.34.07-.12.14-.24.2-.34h0Z"/><path class="cls-1" d="m97.45,88.35s-.02.03-.03.05c.01-.02.02-.03.03-.05h0Zm-.03.05c-.06.08-.12.16-.17.24.05-.07.1-.14.15-.21,0,0,.01-.02.02-.03h0Zm-.17.24c-.06.08-.11.16-.17.24.06-.08.11-.16.17-.24h0Z"/><path class="cls-1" d="m97.83,87.81c-.12.16-.24.34-.36.51.11-.16.22-.31.34-.47,0-.01.02-.03.02-.04h0Z"/><path class="cls-1" d="m97.54,50.46c.12.17.25.35.36.51,0-.01-.02-.03-.02-.04-.11-.16-.23-.32-.34-.47h0Z"/><path class="cls-1" d="m97.51,50.42s.02.03.03.04c0,0,0,0,0,0-.01-.01-.02-.03-.03-.04h0Z"/><path class="cls-1" d="m97.42,50.29s.03.04.05.06c0,0,0,0,0,0-.02-.02-.03-.05-.05-.07h0Zm.05.07s.03.04.04.06c-.01-.02-.03-.04-.04-.06h0Z"/><path class="cls-1" d="m97.9,50.97c.05.07.1.15.14.23-.03-.05-.06-.1-.09-.15-.02-.02-.04-.05-.05-.07h0Zm.14.23s0,.01.01.02c0,0,0-.01-.01-.02h0Z"/><path class="cls-1" d="m98.06,51.22c.07.11.13.23.2.34-.06-.1-.13-.21-.2-.34h0Z"/><path class="cls-1" d="m58.55,81.25c-.12.12-.23.23-.36.36.09-.09.22-.22.36-.36h0Z"/><path class="cls-1" d="m58.79,81.01c-.08.08-.16.16-.24.24.08-.08.16-.16.24-.24h0Z"/><path class="cls-1" d="m59.08,80.72s-.02.02-.02.02c0,0,.02-.02.02-.02h0Zm-.02.02c-.09.09-.18.18-.27.27.1-.1.2-.2.27-.27h0Z"/><path class="cls-1" d="m58.13,58.5c.11.11.28.28.45.45-.15-.15-.3-.3-.45-.45h0Zm.45.45c.15.15.29.29.43.43-.11-.11-.27-.27-.43-.43h0Z"/></svg>