<?xml version="1.0" encoding="UTF-8"?><svg id="Layer_1" xmlns="http://www.w3.org/2000/svg" viewBox="0 0 139.69 139.69"><defs><style>.cls-1{fill:#1d1d1b;}.cls-1,.cls-2{stroke-width:0px;}.cls-2{fill:#daff3b;}</style></defs><path class="cls-2" d="m139.69,69.85c0,38.57-31.27,69.84-69.84,69.84S0,108.42,0,69.85,31.27,0,69.85,0s69.84,31.27,69.84,69.85Z"/><path class="cls-1" d="m95.58,40.96c.3.26.62.53.93.81-.31-.28-.62-.55-.93-.81Z"/><path class="cls-1" d="m96.73,41.96c-.07-.06-.14-.12-.22-.19.18.16.35.32.53.48-.1-.1-.21-.19-.31-.29Z"/><path class="cls-1" d="m95.29,40.71c-.08-.07-.16-.13-.24-.19.18.14.36.29.53.44-.1-.08-.2-.17-.29-.25Z"/><path class="cls-1" d="m94.21,39.86c.25.19.53.42.84.66-.28-.22-.56-.44-.84-.66Z"/><path class="cls-1" d="m98.11,43.28c-.05-.05-.11-.1-.16-.16.11.11.23.23.34.34-.06-.06-.12-.12-.18-.19Z"/><path class="cls-1" d="m108.75,69.38c-.05.84-.12,2.52-.4,4.54-.26,2.03-.79,4.4-1.51,6.61-.71,2.22-1.64,4.27-2.42,5.79-.8,1.51-.86,1.48-.67,1.1.16-.4.51-1.17.48-1.19-.19.38-.37.73-.54,1.07-.18.33-.37.64-.54.94-.34.6-.69,1.13-1.04,1.67-.7,1.06-1.47,2.08-2.53,3.41,0,0-.11.12-.3.33-.19.22-.47.53-.81.92-.36.37-.79.81-1.26,1.31-.25.24-.51.48-.78.74-.14.13-.27.26-.41.39-.15.13-.3.25-.45.38-1.18,1.07-2.59,2.1-3.97,3.04-.7.45-1.39.89-2.06,1.26-.66.39-1.3.71-1.86,1,0,0-.37.21-1.34.65-.24.11-.52.24-.84.38-.32.13-.69.27-1.09.44-.4.17-.86.32-1.37.49-.25.09-.52.18-.79.27-.1.03-.21.06-.32.09.65-.35,1.28-.72,1.89-1.12,1.88-1.29,3.52-2.81,4.86-4.41,1.29-1.64,2.2-3.24,2.68-4.44.24-.6.45-1.08.55-1.41.09-.34.15-.53.15-.53.31-.99.55-1.98.15-1.04-.09.24-.2.52-.31.83-.06.16-.12.32-.18.49-.03.08-.06.17-.1.26-.04.08-.08.17-.12.25-.17.34-.34.7-.52,1.06-.09.18-.18.36-.26.53-.09.17-.2.33-.3.5-.2.32-.4.63-.57.91-.09.14-.17.27-.25.4-.08.12-.17.23-.25.33-.32.4-.52.64-.54.62-.01,0,.14-.21.36-.52.11-.16.25-.32.38-.53.12-.2.25-.42.39-.63-.02-.01.05-.19.17-.47.12-.28.33-.63.47-1.05.32-.82.72-1.73.86-2.21.08-.24.25-.77.46-1.45.08-.35.16-.74.26-1.14.04-.19.09-.39.13-.59,1.43-.38,2.81-.99,4.29-1.78.01.02.04.07.86-.43,2.46-1.49,4.74-3.7,6.28-5.98.36-.59.71-1.15,1.04-1.69.28-.57.55-1.11.79-1.61.14-.25.21-.51.31-.75.09-.24.18-.47.27-.69.09-.22.17-.43.24-.62.07-.2.11-.39.17-.56.13-.46.29-.92.47-1.62.06-.36.14-.77.22-1.28.03-.25.11-.53.12-.83.02-.31.03-.64.05-1l-.04.72c-.01.24-.02.48-.06.72l-.22,1.43s.08.01.08.01c.08-.48.16-.97.24-1.48.05-.25.05-.51.07-.77.01-.26.03-.52.04-.79.02-.27.03-.53.05-.8-.01-.27-.02-.54-.03-.81-.01-.27-.02-.54-.04-.82-.01-.27-.01-.55-.06-.82-.22-2.18-.87-4.29-1.61-6.08,0,0,.05-.02.07-.03l-.42-.88-.21-.44c-.07-.15-.14-.29-.23-.43-.11-.22-.11-.27-.04-.18.07.09.25.32.42.68.18.37.42.84.71,1.4.24.57.48,1.25.75,1.97.12.37.2.75.31,1.15.09.4.23.79.29,1.21.06.42.13.83.2,1.25l.1.63c.01.21.02.42.03.63.02.42.04.83.07,1.24l.02.3c0,.1,0,.2-.01.3,0,.2-.02.39-.03.58-.02.38-.04.75-.05,1.1,0,.35-.09.67-.12.98.03,0,.08.01.11.01.04-.33.12-.65.13-.98l.05-.99h.05c-.14,2.98-.85,5.67-2,8.13-1.16,2.46-2.78,4.73-4.98,6.74.18-.17.41-.38.67-.61.24-.24.48-.52.74-.8.25-.28.5-.55.73-.81.2-.27.39-.52.54-.72.02.02.04.03.64-.76-1.13,1.64-2.66,3.3-4.41,4.7-1.73,1.43-3.74,2.47-5.58,3.23-.46.18-.45.21.02.06.49-.12,1.41-.53,2.75-1.2.32-.2.63-.38.93-.56.29-.19.6-.34.85-.55.52-.4,1.03-.76,1.53-1.15.46-.42.93-.84,1.41-1.29.46-.47.91-.99,1.42-1.55l.04.03c-.34.37-.72.79-1.12,1.23-.19.23-.42.43-.66.64-.23.21-.46.42-.7.63-.45.44-.98.78-1.45,1.15-.24.18-.47.36-.7.52-.24.15-.46.29-.68.42-.42.27.02.03.46-.22.11-.06.22-.12.32-.18.09-.06.17-.11.22-.15.11-.07.11-.06-.09.09-.41.29-.86.53-1.29.8l-.64.4c-.22.11-.45.23-.68.34.7-.3,1.38-.77,2.11-1.2.37-.21.71-.49,1.06-.75.35-.27.71-.52,1.05-.8,1.33-1.17,2.58-2.42,3.47-3.65.31-.4.64-.78.85-1.1.21-.32.36-.52.38-.51,1.33-2.16,2.2-4.31,2.68-6.28.07-.25.13-.49.2-.72.07-.24.09-.48.14-.71.08-.47.17-.92.24-1.37.12-.88.16-1.72.24-2.48,0-.26-.02-.77-.05-1.44,0-.17-.02-.35-.02-.53,0-.09,0-.19-.01-.29-.01-.1-.03-.19-.04-.3-.06-.4-.13-.83-.19-1.27-.04-.22-.07-.45-.11-.68-.06-.22-.12-.45-.17-.68-.12-.45-.24-.91-.35-1.36-.01-.04-.03-.09-.05-.13-.09-.28-.19-.56-.29-.84-.12-.59-.25-1.18-.39-1.76-.39-1.44-.81-2.87-1.4-4.3-.55-1.44-1.25-2.88-2.08-4.37.01,0,.03-.02-.06-.21-.1-.19-.28-.58-.73-1.3-1.35-2.18-2.99-4.3-4.82-6.2-1.83-1.9-3.85-3.59-5.89-4.97-4.07-2.78-8.13-4.26-10.58-5-.82-.26-1.64-.48-2.9-.77-.88-.18-1.99-.39-3.45-.55,1.02.1,2.04.23,3.04.43,0-.03.01-.08.01-.08-1.39-.27-2.88-.46-4.42-.56-.86-.11-1.68-.15-2.43-.23-.26,0-.77.02-1.44.05-.17,0-.35.02-.53.02-.09,0-.19,0-.29.01-.1.01-.19.03-.3.04-.4.06-.83.13-1.27.19-.04,0-.07.01-.11.02-.12.01-.24.02-.36.03-3.85.42-7.63,1.49-10.78,2.89,0,0-.02-.05-.03-.07-1.05.46-2.08.98-3.09,1.54-.39.19-.47.22-.3.1.17-.12.58-.39,1.22-.72,1.25-.7,3.37-1.69,5.95-2.53,2.58-.84,5.63-1.43,8.58-1.65,2.95-.22,5.78-.06,7.93.24,0-.03.01-.08.01-.11-1.15-.17-2.31-.26-3.47-.32v-.05c5.23.24,9.96,1.5,14.3,3.53,2.4,1.14,4.69,2.51,6.86,4.17-.06-.04-.11-.09-.16-.13,0-.01.02-.02-.15-.16-.17-.13-.52-.39-1.23-.9,1.44.98,2.89,2.15,4.3,3.44,1.41,1.29,2.73,2.75,3.96,4.28.62.76,1.18,1.57,1.74,2.36.53.82,1.06,1.63,1.52,2.47.94,1.66,1.76,3.33,2.38,4.96.33.81.36.8.06-.02-.15-.41-.36-1.03-.72-1.83-.34-.81-.82-1.79-1.45-2.95-1.29-2.29-2.57-4.09-3.96-5.78-1.4-1.69-2.94-3.26-4.95-4.95l.03-.04c1.35,1.12,2.94,2.64,4.38,4.3,1.44,1.66,2.73,3.43,3.66,4.93.49.73.03-.02-.43-.77-.22-.38-.47-.75-.59-.93-.12-.18-.11-.19.15.16.26.36.48.74.73,1.11.24.37.48.74.69,1.12l.67,1.14.62,1.17c-1.18-2.37-2.83-4.99-4.81-7.36-1.98-2.37-4.25-4.47-6.35-6.08-.34-.28-.71-.53-1.04-.77-.33-.25-.64-.48-.92-.66-.55-.37-.91-.63-.9-.65-3.77-2.31-7.51-3.77-10.93-4.64-3.14-.79-6.01-1.14-8.51-1.25,0-.02.01-.04.02-.05.05-.15.13,0,.21,0-.03-.15.05-.23.03-.38.03,0,.05-.46.05-.68,0,0-.03-.08-.03-.3,0-.08-.03-.08-.05-.08h.05c-.05-.08,0-.23-.03-.3h.05c-.05-.15,0-.3-.03-.46h.05c0-.08,0-.15.03-.15h.05c.03-.08-.03-.23.03-.23h-.05c0-.3.03-.53.05-.76.11-.61.05-1.37,0-2.05,0-.08-.05-.15-.11-.08v-.23c0-.15-.08-.08-.08-.23-.13-1.22,0-2.43-.08-3.65-.03.3-.08.53-.05.84-.03,0-.08,0-.08.08-.03.46.03.99-.08,1.22-.03.08-.11.15-.11.38v-.23h-.08c-.03.3-.05.68-.08.99h-.08v.15c-.19.15-.16-.68-.19-1.07h-.11v.15h-.05v-.99s-.05,0-.05.08c0-.3.03-.68-.03-.99-.03-.08-.11,0-.13.23v.61h-.05c0-.15.03-.38,0-.53-.03-.08-.08.15-.11.08,0-.08,0-.15-.03-.23,0,.23.03.53,0,.76-.03.08-.05.15-.11.15.03.38-.05.68-.19.91-.04.06-.03.29-.03.49-.13,1.28-.08,2.64-.26,3.84-.03.08-.08.23-.11.3-.08.61-.05,1.37,0,1.98.02.17.11.32.2.41-.01,0-.03,0-.04,0-.42.01-.94,0-1.52.05-1.16.07-2.6.21-4.13.49-.38.07-.77.14-1.17.21-.39.09-.78.18-1.18.27l-.59.14-.59.17c-.39.11-.78.22-1.17.33-.17.05-.33.11-.5.16-6.78,2.15-13.02,6.29-17.68,11.84-1.23,1.48-2.37,3.04-3.39,4.68-1,1.65-1.88,3.37-2.65,5.14-.74,1.78-1.35,3.61-1.84,5.48-.47,1.87-.79,3.77-1,5.68-.1.96-.16,1.91-.18,2.87-.09-.01-.16-.05-.27-.03,0-.03-.46-.05-.68-.05,0,0-.08.03-.3.03-.08,0-.08.03-.08.05v-.05c-.08.05-.23,0-.3.03v-.05c-.15.05-.3,0-.46.03v-.05c-.08,0-.15,0-.15-.03v-.05c-.08-.03-.23.03-.23-.03v.05c-.3,0-.53-.03-.76-.05-.61-.11-1.37-.05-2.05,0-.08,0-.15.05-.08.11h-.23c-.15,0-.08.08-.23.08-1.22.13-2.43,0-3.65.08.3.03.53.08.84.05,0,.03,0,.08.08.08.46.03.99-.03,1.22.08.08.03.15.11.38.11h-.23v.08c.3.03.68.05.99.08v.08h.15c.15.19-.68.16-1.07.19v.11h.15v.05h-.99s0,.05.08.05c-.3,0-.68-.03-.99.03-.08.03,0,.11.23.13h.61v.05c-.15,0-.38-.03-.53,0-.08.03.15.08.08.11-.08,0-.15,0-.23.03.23,0,.53-.03.76,0,.08.03.15.05.15.11.38-.03.68.05.91.19.06.04.29.03.49.03,1.28.13,2.64.08,3.84.26.08.03.23.08.3.11.61.08,1.37.05,1.98,0,.1,0,.2-.05.28-.1.15,6.05,1.73,12.02,4.53,17.24,3.53,6.63,8.95,12.03,15.18,15.54.38.24.88.49,1.42.78.54.3,1.15.58,1.76.86,1.22.57,2.47,1.06,3.33,1.34.84.31,1.73.54,2.61.8.9.21,1.8.45,2.74.6.93.19,1.88.3,2.84.42.48.06.96.08,1.45.12l.73.06.73.02c.1,0,.19,0,.29,0-.03.04-.05.46-.05.68,0,0,.03.08.03.3,0,.08.03.08.05.08h-.05c.05.08,0,.23.03.3h-.05c.05.15,0,.3.03.46h-.05c0,.08,0,.15-.03.15h-.05c-.03.08.03.23-.03.23h.05c0,.3-.03.53-.05.76-.11.61-.05,1.37,0,2.05,0,.08.05.15.11.08v.23c0,.15.08.08.08.23.13,1.22,0,2.43.08,3.65.03-.3.08-.53.05-.84.03,0,.08,0,.08-.08.03-.46-.03-.99.08-1.22.03-.08.11-.15.11-.38v.23h.08c.03-.3.05-.68.08-.99h.08v-.15c.19-.15.16.68.19,1.07h.11v-.15h.05v.99s.05,0,.05-.08c0,.3-.03.68.03.99.03.08.11,0,.13-.23v-.61h.05c0,.15-.03.38,0,.53.03.08.08-.15.11-.08,0,.08,0,.15.03.23,0-.23-.03-.53,0-.76.03-.08.05-.15.11-.15-.03-.38.05-.68.19-.91.04-.06.03-.29.03-.49.13-1.28.08-2.64.26-3.84.03-.08.08-.23.11-.3.08-.61.05-1.36,0-1.97,1.19-.03,2.38-.12,3.58-.26,1.99-.22,3.98-.63,5.92-1.19,3.9-1.09,7.59-2.85,10.86-5.02,1.63-1.1,3.15-2.29,4.56-3.56,1.39-1.28,2.67-2.62,3.81-4,2.28-2.78,3.82-5.54,4.74-7.57.25-.5.42-.97.59-1.38.16-.41.31-.75.41-1.04.2-.58.3-.9.3-.9.32-.83.53-1.7.65-2.13.1-.43.07-.44-.24.39-.28.84-.71,1.98-1.25,3.19-.28.6-.55,1.24-.88,1.84-.16.31-.32.61-.48.92-.16.3-.34.59-.5.88-.17.29-.33.57-.49.84-.17.26-.34.52-.5.76-.31.49-.6.92-.87,1.27-.52.71-.86,1.15-.89,1.13,0,0,.06-.09.17-.25.11-.16.27-.38.46-.65.19-.27.42-.58.64-.93.22-.35.46-.72.7-1.09-.02-.01.13-.31.36-.78.22-.47.57-1.1.88-1.8.16-.35.33-.71.49-1.07.15-.36.3-.72.44-1.06.3-.68.51-1.3.67-1.7.16-.41.47-1.34.83-2.54.15-.61.35-1.27.51-1.99.14-.71.33-1.45.43-2.21.06-.38.12-.75.18-1.12.04-.37.08-.74.12-1.11.09-.72.13-1.41.16-2.04.05-.62.05-1.18.05-1.63,0-.45,0-.81,0-1.02-.02-1.31-.06-1.31-.11-.46Zm-37.91-38.29s.03.08.03.15c.07,0,.17.09.25.18-.11,0-.24,0-.38,0,.02-.16.04-.33.11-.33Zm-10.06,1.77c-.37.1-.74.22-1.11.33.37-.12.74-.23,1.11-.33Zm-2.19.69c-.27.1-.54.19-.8.29.15-.06.3-.12.45-.17.12-.04.23-.08.35-.12Zm-.99.36s.04-.01.05-.02c-.02,0-.04.01-.05.02Zm-1.23.48l.27-.11c-.3.13-.6.25-.88.38l.61-.27Zm48.7,26.73l.31.64c.1.21.17.44.26.66l.49,1.34.36,1.38c.05.23.13.46.17.69l.11.7c.06.47.17.94.2,1.41.04.95.14,1.9.05,2.85l-.04.71c-.01.24-.02.48-.06.71l-.21,1.41c-.38,1.85-.92,3.7-1.81,5.38l-.31.64-.37.61c-.25.4-.48.82-.75,1.21-.57.76-1.11,1.54-1.78,2.22-.61.73-1.35,1.33-2.05,1.98-.37.29-.76.57-1.14.86-.19.14-.38.29-.57.42l-.61.37c-1.55,1.01-3.28,1.72-5.05,2.26.04-.19.08-.38.09-.58.28-1.72.23-3.45.24-3.94-.02-.74-.06-.74-.11-.26-.02.24-.07.59-.12,1.03-.06.44-.09.96-.18,1.53-.11.57-.24,1.18-.37,1.82-.05.19-.11.38-.16.57l-.91.24c-.47.09-.94.15-1.41.23l-.7.11c-.24.02-.47.03-.71.04l-1.42.08c.48-.02.94-.04,1.39-.06.22,0,.45-.02.67-.03.22-.02.43-.06.65-.09.43-.06.85-.12,1.26-.18.4-.06.78-.18,1.18-.27-.12.42-.25.84-.37,1.25-.21.62-.48,1.21-.69,1.76-.1.28-.24.54-.37.78-.12.24-.24.47-.35.69-.43.86-.5.82-.4.6.07-.23.24-.68.21-.7-.1.22-.2.42-.29.61-.1.18-.21.35-.31.52-.2.33-.39.63-.58.93-.18.31-.42.58-.64.89-.23.31-.48.64-.76,1.02,0,0-.06.06-.18.18-.11.12-.27.29-.47.5-.2.21-.43.47-.69.74-.28.26-.6.54-.93.83-.16.15-.33.3-.51.45-.19.14-.37.28-.56.42-.38.27-.75.58-1.14.83-.8.47-1.54.97-2.19,1.25,0,0-.21.11-.74.37-.13.06-.28.15-.46.22-.18.07-.39.14-.61.23-.23.08-.48.18-.76.28-.14.05-.29.11-.44.16-.16.04-.32.08-.49.13-.92.23-.91.26-.9.29t-.01-.05c-.45.17-1.15.26-1.86.37-.7.14-1.41.13-1.89.17t0-.05c-.94.12-1.89.01-2.83-.02-.47-.03-.94-.14-1.4-.2l-.7-.1c-.23-.03-.46-.11-.69-.16t.01-.05c-.46-.12-.91-.24-1.26-.33-.17-.04-.31-.1-.4-.14-.1-.04-.15-.06-.15-.07t.02-.05c-.43-.18-1.11-.39-1.65-.63-.53-.25-.95-.46-.94-.48t-.02.05c-.21-.1-.42-.2-.63-.3-.19-.12-.39-.24-.58-.35-.38-.23-.75-.45-1.1-.67-.33-.25-.66-.5-.98-.74-.32-.24-.64-.47-.91-.74-.55-.53-1.13-.99-1.58-1.55-.24-.27-.48-.53-.71-.8-.24-.26-.42-.56-.64-.84-.14-.19-.28-.38-.42-.57l-.21-.29-.18-.31c-.25-.41-.5-.84-.75-1.26-.24-.43-.43-.9-.65-1.35-.1-.23-.23-.45-.31-.69-.09-.24-.17-.48-.26-.72-.16-.39-.29-.79-.4-1.2.08.01.17.03.25.03,1.72.28,3.45.23,3.94.24.74-.02.74-.06.26-.11-.24-.02-.59-.07-1.03-.12-.44-.06-.96-.09-1.53-.18-.57-.11-1.18-.24-1.82-.37-.07-.02-.15-.04-.23-.07-.11-.41-.21-.83-.31-1.24-.08-.52-.16-1.05-.24-1.58-.02-.13-.05-.26-.06-.4l-.02-.4-.04-.81-.04-.81.04-.81.04-.82.02-.41c.01-.14.04-.27.06-.41l.24-1.62c.13-.53.27-1.06.4-1.59.61-2.09,1.54-4.07,2.71-5.83.56-.75,1.08-1.54.48-.81.37-.54.81-1.02,1.25-1.5,1.27,1.15,2.64,2.18,4.1,3.02.21.15.51.29.83.45.32.16.67.34,1.01.52.34.19.71.31,1.05.45.33.13.64.25.88.35.23.08.46.16.69.23.66,2.17,1.61,4.25,2.84,6.08.68.98,1.41,1.9,2.19,2.74-.21.19-.42.38-.63.57-.37.29-.76.57-1.14.86-.19.14-.38.29-.57.42l-.61.37c-1.59,1.04-3.37,1.76-5.19,2.3l-1.38.36c-.47.09-.94.15-1.41.23l-.7.11c-.24.02-.47.03-.71.04l-1.42.08c.48-.02.94-.04,1.39-.06.22,0,.45-.02.67-.03.22-.02.43-.06.65-.09.43-.06.85-.12,1.26-.18.42-.06.81-.19,1.22-.28,1.63-.37,3.18-1.03,4.86-1.92.01.02.04.07.86-.43,1.04-.63,2.05-1.39,2.98-2.23.19.2.37.39.56.58-.35.32-.71.63-1.07.92-1.73,1.43-3.74,2.47-5.58,3.23-.46.18-.45.21.02.06.49-.12,1.41-.53,2.75-1.2.32-.2.63-.38.93-.56.29-.19.6-.34.85-.55.52-.4,1.03-.76,1.53-1.15.23-.21.46-.42.69-.63.01.01.02.02.03.03-.11.1-.22.2-.33.29-.45.44-.98.78-1.45,1.15-.24.18-.47.36-.7.52-.24.15-.46.29-.68.42-.42.27.02.03.46-.22.11-.06.22-.12.32-.18.09-.06.17-.11.22-.15.11-.07.11-.06-.09.09-.41.29-.86.53-1.29.8l-.64.4c-.22.11-.45.23-.68.34.7-.3,1.38-.77,2.11-1.2.37-.21.71-.49,1.06-.75.35-.27.71-.52,1.05-.8.24-.21.47-.42.71-.64.43.41.86.81,1.3,1.18,1.64,1.29,3.24,2.2,4.44,2.68.6.24,1.08.45,1.41.55.34.09.53.15.53.15.99.31,1.98.55,1.04.15-.24-.09-.52-.2-.83-.31-.16-.06-.32-.12-.49-.18-.08-.03-.17-.06-.26-.1-.08-.04-.17-.08-.25-.12-.34-.17-.7-.34-1.06-.52-.18-.09-.36-.18-.53-.26-.17-.09-.33-.2-.5-.3-.32-.2-.63-.4-.92-.57-.14-.09-.27-.17-.4-.25-.12-.08-.23-.17-.33-.25-.4-.32-.64-.52-.62-.54,0-.01.21.14.52.36.16.11.32.25.53.38.2.12.42.25.63.39.01-.02.19.05.47.17.28.12.63.33,1.05.47.82.32,1.73.72,2.21.86.24.08.77.25,1.45.46.35.08.74.16,1.14.26.41.08.82.21,1.26.24,1.72.28,3.45.23,3.94.24.74-.02.74-.06.26-.11-.24-.02-.59-.07-1.03-.12-.44-.06-.96-.09-1.53-.18-.57-.11-1.18-.24-1.82-.37-.63-.17-1.26-.38-1.89-.56-.62-.21-1.21-.48-1.76-.69-.28-.1-.54-.24-.78-.37-.24-.12-.47-.24-.69-.35-.86-.43-.82-.5-.6-.4.23.07.68.24.7.21-.22-.1-.42-.2-.61-.29-.18-.1-.35-.21-.52-.31-.33-.2-.63-.39-.93-.58-.31-.18-.58-.42-.89-.64-.31-.23-.64-.48-1.02-.76,0,0-.06-.06-.18-.18-.12-.11-.29-.27-.5-.47-.13-.13-.29-.27-.46-.42.47-.51.91-1.02,1.28-1.53.31-.4.64-.78.85-1.1.21-.32.36-.52.38-.51,1.02-1.67,1.77-3.33,2.29-4.9.14-.04.28-.07.42-.11,2.26-.66,4.42-1.64,6.32-2.92.98-.68,1.9-1.41,2.74-2.19.19.21.38.42.57.63.29.37.57.76.86,1.14.14.19.29.38.42.57l.37.61c1.04,1.59,1.76,3.37,2.3,5.19l.36,1.38c.09.47.15.94.23,1.41l.11.7c.02.24.03.47.04.71l.08,1.42c-.02-.48-.04-.94-.06-1.39,0-.22-.02-.45-.03-.67-.02-.22-.06-.43-.09-.65-.06-.43-.12-.85-.18-1.26-.06-.42-.19-.81-.28-1.22-.37-1.63-1.03-3.18-1.92-4.86.02-.01.07-.04-.43-.86-.63-1.04-1.39-2.05-2.23-2.98.2-.19.39-.37.58-.56.32.35.63.7.92,1.07,1.43,1.73,2.47,3.74,3.23,5.58.18.46.21.45.06-.02-.12-.49-.53-1.41-1.2-2.75-.2-.32-.38-.63-.56-.93-.19-.29-.34-.6-.55-.85-.4-.52-.76-1.03-1.15-1.53-.21-.23-.42-.46-.63-.69.01-.01.02-.02.03-.03.1.11.2.22.29.33.44.45.78.98,1.15,1.45.18.24.36.47.52.7.15.24.29.46.42.68.27.42.03-.02-.22-.46-.06-.11-.12-.22-.18-.32-.06-.09-.11-.17-.15-.22-.07-.11-.06-.11.09.09.29.41.53.86.8,1.29l.4.64c.11.22.23.45.34.68-.3-.7-.77-1.38-1.2-2.11-.21-.37-.49-.71-.75-1.06-.27-.35-.52-.71-.8-1.05-.21-.24-.42-.47-.64-.71.41-.43.81-.86,1.18-1.3,1.29-1.64,2.2-3.24,2.68-4.44.24-.6.45-1.08.55-1.41.09-.34.15-.53.15-.53.31-.99.55-1.98.15-1.04-.09.24-.2.52-.31.83-.06.16-.12.32-.18.49-.03.08-.06.17-.1.26-.04.08-.08.17-.12.25-.17.34-.34.7-.52,1.06-.09.18-.18.36-.26.53-.09.17-.2.33-.3.5-.2.32-.4.63-.57.91-.09.14-.17.27-.25.4-.08.12-.17.23-.25.33-.32.4-.52.64-.54.62-.01,0,.14-.21.36-.52.11-.16.25-.32.38-.53.12-.2.25-.42.39-.63-.02-.01.05-.19.17-.47.12-.28.33-.63.47-1.05.32-.82.72-1.73.86-2.21.08-.24.25-.77.46-1.45.08-.35.16-.74.26-1.14.08-.41.21-.82.24-1.26.28-1.72.23-3.45.24-3.94-.02-.74-.06-.74-.11-.26-.02.24-.07.59-.12,1.03-.06.44-.09.96-.18,1.53-.11.57-.24,1.18-.37,1.82-.17.63-.38,1.26-.56,1.89-.21.62-.48,1.21-.69,1.76-.1.28-.24.54-.37.78-.12.24-.24.47-.35.69-.43.86-.5.82-.4.6.07-.23.24-.68.21-.7-.1.22-.2.42-.29.61-.1.18-.21.35-.31.52-.2.33-.39.63-.58.93-.18.31-.42.58-.64.89-.23.31-.48.64-.76,1.02,0,0-.06.06-.18.18-.11.12-.27.29-.47.5-.13.13-.27.29-.42.46-.51-.47-1.02-.91-1.53-1.28-.4-.31-.78-.64-1.1-.85-.32-.21-.52-.36-.51-.38-1.84-1.13-3.66-1.92-5.38-2.43-.05-.21-.11-.42-.16-.63-.01-.04-.03-.08-.05-.13-.1-.32-.23-.64-.34-.96-.19-.51-.35-1.04-.61-1.53-.24-.5-.47-1-.71-1.49l-.85-1.42c-.64-.98-1.35-1.91-2.13-2.79.26-.23.52-.47.78-.7.26-.24.56-.42.84-.64.19-.14.38-.28.57-.42l.29-.21.31-.18c.41-.25.84-.5,1.26-.75.43-.24.9-.43,1.35-.65.23-.1.45-.23.69-.31.24-.09.48-.17.72-.26.96-.39,1.99-.61,3.01-.87.52-.08,1.05-.16,1.58-.24.13-.02.26-.05.4-.06l.4-.02.81-.04.81-.04.81.04.82.04.41.02c.14.01.27.04.41.06l1.62.24c.27.07.54.14.81.2l.06.22c.09.47.15.94.23,1.41l.11.7c.02.24.03.47.04.71l.08,1.42c-.02-.48-.04-.94-.06-1.39,0-.22-.02-.45-.03-.67-.02-.22-.06-.43-.09-.65-.06-.43-.12-.85-.18-1.26-.02-.16-.06-.32-.1-.48.24.06.48.12.72.18,2.09.61,4.07,1.54,5.83,2.71.75.56,1.54,1.08.81.48.78.53,1.44,1.22,2.15,1.84.63.7.81.86.98,1.02.09.08.17.16.32.31.15.15.31.39.6.77l.43.57.22.28c.07.1.13.2.19.3l.75,1.21c.13.2.23.42.33.63l.31.64Zm-58.73,26.8c-.18-.1-.35-.21-.52-.31-.33-.2-.63-.39-.93-.58-.31-.18-.58-.42-.89-.64-.31-.23-.64-.48-1.02-.76,0,0-.06-.06-.18-.18-.12-.11-.29-.27-.5-.47-.21-.2-.47-.43-.74-.69-.26-.28-.54-.6-.83-.93-.15-.16-.3-.33-.45-.51-.14-.19-.28-.37-.42-.56-.27-.38-.58-.75-.83-1.14-.47-.8-.97-1.54-1.25-2.19,0,0-.11-.21-.37-.74-.06-.13-.15-.28-.22-.46-.07-.18-.14-.39-.23-.61-.08-.23-.18-.48-.28-.76-.05-.14-.11-.29-.16-.44-.04-.16-.08-.32-.13-.49-.23-.92-.26-.91-.29-.9t.05-.01c-.17-.45-.26-1.15-.37-1.86-.14-.7-.13-1.41-.17-1.89h.05c-.12-.94-.01-1.89.02-2.83.03-.47.14-.94.2-1.4l.1-.7c.03-.23.11-.46.16-.69t.05.01c.12-.46.24-.91.33-1.26.04-.17.1-.31.14-.4.04-.1.06-.15.07-.15t.05.02c.18-.43.39-1.11.63-1.65.25-.53.46-.95.48-.94t-.05-.02c.1-.21.2-.42.3-.63.12-.19.24-.39.35-.58.23-.38.45-.75.67-1.1.25-.33.5-.66.74-.98.24-.32.47-.64.74-.91.53-.55.99-1.13,1.55-1.58.27-.24.53-.48.8-.71.26-.24.56-.42.84-.64.19-.14.38-.28.57-.42l.29-.21.31-.18c.41-.25.84-.5,1.26-.75.43-.24.9-.43,1.35-.65.23-.1.45-.23.69-.31.24-.09.48-.17.72-.26.09-.04.19-.07.28-.1-.1.56-.19,1.13-.26,1.7-.19,2.22-.09,4.44.31,6.61.46,2.16,1.19,4.24,2.19,6.17.94,1.71,2.07,3.29,3.36,4.71-.24.26-.48.52-.72.8-1.42,1.71-2.6,3.63-3.5,5.67-.85,2.07-1.39,4.25-1.65,6.45-.19,2.22-.09,4.44.31,6.61,0,.03.01.06.02.09-.38-.15-.74-.3-1.1-.44-.28-.1-.54-.24-.78-.37-.24-.12-.47-.24-.69-.35-.86-.43-.82-.5-.6-.4.23.07.68.24.7.21-.22-.1-.42-.2-.61-.29Zm8.67-45.58c.53-.78,1.22-1.44,1.84-2.15.7-.63.86-.81,1.02-.98.08-.09.16-.17.31-.32.15-.15.39-.31.77-.6l.57-.43.28-.22c.1-.07.2-.13.3-.19l1.21-.75c.2-.13.42-.23.63-.33l.64-.31.64-.31c.21-.1.44-.17.66-.26l1.34-.49,1.38-.36c.23-.05.46-.13.69-.17l.7-.11c.47-.06.94-.17,1.41-.2.95-.04,1.9-.14,2.85-.05l.71.04c.24.01.48.02.71.06l1.41.21c1.85.38,3.7.92,5.38,1.81l.64.31.61.37c.4.25.82.48,1.21.75.76.57,1.54,1.11,2.22,1.78.73.61,1.33,1.35,1.98,2.05.29.37.57.76.86,1.14.14.19.29.38.42.57l.37.61c.83,1.28,1.46,2.68,1.96,4.13-.67-.13-1.35-.24-2.03-.32-2.22-.19-4.44-.09-6.61.31-2.16.46-4.24,1.19-6.17,2.19-1.71.94-3.29,2.07-4.71,3.36-.26-.24-.52-.48-.8-.72-1.71-1.42-3.63-2.6-5.67-3.5-2.07-.85-4.25-1.39-6.45-1.65-2.04-.18-4.08-.1-6.09.22.59-1.67,1.38-3.26,2.34-4.7.56-.75,1.08-1.54.48-.81Zm18.26,21.36l-.99-.05v-.05c1.22.06,2.39.22,3.52.46l.18.69c-.19-.05-.39-.11-.62-.17-.36-.06-.77-.14-1.28-.22-.25-.03-.53-.11-.83-.12-.31-.02-.64-.03-1-.05l.72.04c.24.01.48.02.72.06l1.43.22s.01-.08.01-.08c-.48-.08-.97-.16-1.48-.24-.25-.05-.51-.05-.77-.07-.26-.01-.52-.03-.79-.04-.27-.02-.53-.03-.8-.05-.27.01-.54.02-.81.03-.27.01-.54.02-.82.04-.27.01-.55.01-.82.06-.7.07-1.39.19-2.07.34.03-.11.05-.21.08-.3.12-.03.23-.05.35-.07.42-.06.83-.13,1.25-.2l.63-.1c.21-.01.42-.02.63-.03.42-.02.83-.04,1.24-.07l.3-.02c.1,0,.2,0,.3.01.2,0,.39.02.58.03.38.02.75.04,1.1.05.35,0,.67.09.98.12,0-.03.01-.08.01-.11-.33-.04-.65-.12-.98-.13Zm2.81,1.43c.05.23.13.46.17.69l.11.7c.06.47.17.94.2,1.41.04.95.14,1.9.05,2.85l-.04.71c-.01.24-.02.48-.06.71l-.21,1.41c-.06.31-.13.62-.21.93-.1.04-.1.05-.1.06t-.01-.05c-.45.17-1.15.26-1.86.37-.7.14-1.41.13-1.89.17t0-.05c-.94.12-1.89.01-2.83-.02-.47-.03-.94-.14-1.4-.2l-.7-.1c-.23-.03-.46-.11-.69-.16t.01-.05s-.04,0-.06-.01c-.16-.45-.25-1.14-.35-1.82-.14-.7-.13-1.41-.17-1.89t.05,0c-.12-.94-.01-1.89.02-2.83.03-.47.14-.94.2-1.4l.1-.7c.03-.23.11-.46.16-.69t.05.01s.02-.09.04-.14c.21-.05.41-.12.62-.15l.7-.11c.47-.06.94-.17,1.41-.2.95-.04,1.9-.14,2.85-.05l.71.04c.24.01.48.02.71.06l1.41.21c.33.07.66.14.99.22l.02.08Zm-13.18.35c.46-.2.99-.39,1.55-.6-.02.09-.04.19-.06.29-.56.19-1.1.39-1.61.61,0,0-.02-.05-.03-.07l-.88.42-.44.21c-.15.07-.29.14-.43.23-.22.11-.27.11-.18.04.09-.07.32-.25.68-.42.37-.18.84-.42,1.4-.71Zm-.3-.88s.04-.02.06-.03l.16-.06c-.08.03-.15.06-.22.09Zm-1.3,2.51c.2-.13.42-.23.63-.33l.64-.31.64-.31c.21-.1.44-.17.66-.26l.41-.15c-.47,2.52-.53,5.25-.07,7.93-.34-.12-.71-.25-1.03-.39-.53-.25-.95-.46-.94-.48t-.02.05c-.21-.1-.42-.2-.63-.3-.19-.12-.39-.24-.58-.35-.38-.23-.75-.45-1.1-.67-.33-.25-.66-.5-.98-.74-.32-.24-.64-.47-.91-.74-.1-.1-.21-.19-.31-.29.06-.06.1-.11.15-.16.08-.09.16-.17.31-.32.15-.15.39-.31.77-.6l.57-.43.28-.22c.1-.07.2-.13.3-.19l1.21-.75Zm14.1,9.76c-.26.73-.56,1.44-.93,2.13l-.31.64-.37.61c-.25.4-.48.82-.75,1.21-.55.72-1.07,1.47-1.7,2.12-.07-.08-.14-.15-.21-.23-.15-.16-.3-.33-.45-.51-.14-.19-.28-.37-.42-.56-.27-.38-.58-.75-.83-1.14-.47-.8-.97-1.54-1.25-2.19,0,0-.11-.21-.37-.74-.06-.13-.15-.28-.22-.46-.07-.18-.14-.39-.23-.61-.03-.09-.07-.18-.1-.27,2.58.47,5.38.51,8.13,0Zm-3.28,7.55c.21-.23.43-.47.66-.72l.04.03c-.2.22-.43.47-.66.72-.01-.01-.02-.02-.04-.03Zm-.12-.11s-.02-.02-.03-.03c0,0,0,0,0,0,.24-.27.49-.54.71-.78.2-.27.39-.52.54-.72.02.02.04.03.64-.76-.53.77-1.16,1.55-1.85,2.3Zm-.04-.04c-.16-.18-.33-.37-.5-.56.67-.73,1.27-1.49,1.79-2.26.36-.59.71-1.15,1.04-1.69.28-.57.55-1.11.79-1.61.14-.25.21-.51.31-.75.08-.2.15-.38.22-.57.27-.05.55-.11.82-.18-.26.79-.57,1.56-.92,2.31-.9,1.9-2.06,3.68-3.55,5.31Zm4.92-9.95c-.21.05-.37.1-.49.13.05-.17.1-.34.15-.54.06-.36.14-.77.22-1.28.03-.25.11-.53.12-.83.02-.31.03-.64.05-1l-.04.72c-.01.24-.02.48-.06.72l-.22,1.43s.08.01.08.01c.08-.48.16-.97.24-1.48.05-.25.05-.51.07-.77.01-.26.03-.52.04-.79.02-.27.03-.53.05-.8-.01-.27-.02-.54-.03-.81-.01-.27-.02-.54-.04-.82-.01-.27-.01-.55-.06-.82-.07-.75-.2-1.5-.37-2.22.1.03.2.05.3.08.04.16.08.33.11.5.06.42.13.83.2,1.25l.1.63c.01.21.02.42.03.63.02.42.04.83.07,1.24l.02.3c0,.1,0,.2-.01.3,0,.2-.02.39-.03.58-.02.38-.04.75-.05,1.1,0,.35-.09.67-.12.98.03,0,.08.01.11.01.04-.33.12-.65.13-.98l.05-.99h.05c-.06,1.19-.21,2.34-.44,3.44-.07.02-.13.03-.19.05Zm.89-.64c.08-.47.17-.92.24-1.37.12-.88.16-1.72.24-2.48,0-.26-.02-.77-.05-1.44,0-.17-.02-.35-.02-.53,0-.09,0-.19-.01-.29-.01-.1-.03-.19-.04-.3-.06-.4-.13-.83-.19-1.27-.02-.15-.05-.3-.07-.44.88.29,1.75.64,2.57,1.08l.64.31.61.37c.4.25.82.48,1.21.75.72.55,1.47,1.07,2.12,1.7-.08.07-.15.14-.23.21-.16.15-.33.3-.51.45-.19.14-.37.28-.56.42-.38.27-.75.58-1.14.83-.8.47-1.54.97-2.19,1.25,0,0-.21.11-.74.37-.13.06-.28.15-.46.22-.18.07-.39.14-.61.23-.23.08-.48.18-.76.28-.03.01-.07.03-.11.04.02-.13.04-.26.07-.39Zm8.09-4.68c-.23-.21-.47-.43-.72-.66l.03-.04c.22.2.47.43.72.66-.01.01-.02.02-.03.04Zm-.11.12s-.02.02-.03.03c0,0,0,0,0,0-.27-.24-.54-.49-.78-.71-.27-.2-.52-.39-.72-.54.02-.02.03-.04-.76-.64.77.53,1.55,1.16,2.3,1.85Zm-.04.04c-.18.16-.37.33-.56.5-.73-.67-1.49-1.27-2.26-1.79-.59-.36-1.15-.71-1.69-1.04-.57-.28-1.11-.55-1.61-.79-.25-.14-.51-.21-.75-.31-.24-.09-.47-.18-.69-.27-.11-.04-.21-.08-.32-.12,0,0,0,0,0,0-.06-.22-.12-.45-.17-.68-.01-.04-.02-.08-.03-.13.96.3,1.88.65,2.78,1.07,1.9.9,3.68,2.06,5.31,3.55Zm-9.02-4.59c.03.15.07.29.11.44-.1-.03-.19-.06-.29-.09-.06-.25-.12-.5-.19-.74.09.02.19.04.28.07.03.11.05.21.08.32Zm-.18-3.41s.02.04.03.06l.06.16c-.03-.08-.06-.15-.09-.22Zm-.13,2.26c.02.07.04.15.06.23-.1-.03-.2-.06-.3-.08-.24-.78-.52-1.53-.81-2.23,0,0,.05-.02.07-.03l-.42-.88-.21-.44c-.07-.15-.14-.29-.23-.43-.11-.22-.11-.27-.04-.18.07.09.25.32.42.68.18.37.42.84.71,1.4.24.57.48,1.25.75,1.97Zm-1.74-2.3l.31.64c.1.21.17.44.26.66l.37,1c-.16-.03-.31-.05-.46-.08-.47-.08-.92-.17-1.37-.24-.88-.12-1.72-.16-2.48-.24-.26,0-.77.02-1.44.05-.17,0-.35.02-.53.02-.09,0-.19,0-.29.01-.1.01-.19.03-.3.04-.4.06-.83.13-1.27.19-.06,0-.12.02-.18.03.17-.43.35-1.01.56-1.48.25-.53.46-.95.48-.94t-.05-.02c.1-.21.2-.42.3-.63.12-.19.24-.39.35-.58.23-.38.45-.75.67-1.1.25-.33.5-.66.74-.98.24-.32.47-.64.74-.91.1-.1.19-.21.29-.31.06.06.11.1.16.15.09.08.17.16.32.31.15.15.31.39.6.77l.43.57.22.28c.07.1.13.2.19.3l.75,1.21c.13.2.23.42.33.63l.31.64Zm-22.59-11.14c.52-.08,1.05-.16,1.58-.24.13-.02.26-.05.4-.06l.4-.02.81-.04.81-.04.81.04.82.04.41.02c.14.01.27.04.41.06l1.62.24c.53.13,1.06.27,1.59.4,2.09.61,4.07,1.54,5.83,2.71.75.56,1.54,1.08.81.48.54.37,1.02.81,1.5,1.25-1.15,1.27-2.18,2.64-3.02,4.1-.15.21-.29.51-.45.83-.16.32-.34.67-.52,1.01-.19.34-.31.71-.45,1.05-.13.33-.25.64-.35.88-.13.37-.25.76-.36,1.15-.04.01-.08.03-.12.04-.32.1-.64.23-.96.34-.51.19-1.04.35-1.53.61-.5.24-1,.47-1.49.71l-1.42.85c-.98.64-1.91,1.35-2.79,2.13-.23-.26-.47-.52-.7-.78-.24-.26-.42-.56-.64-.84-.14-.19-.28-.38-.42-.57l-.21-.29-.18-.31c-.25-.41-.5-.84-.75-1.26-.24-.43-.43-.9-.65-1.35-.1-.23-.23-.45-.31-.69-.09-.24-.17-.48-.26-.72-.39-.96-.61-1.99-.87-3.01-.08-.52-.16-1.05-.24-1.58-.02-.13-.05-.26-.06-.4l-.02-.4-.04-.81-.04-.81.04-.81.04-.82.02-.41c.01-.14.04-.27.06-.41l.24-1.62c.04-.16.08-.31.12-.47.18-.04.36-.09.53-.13Zm54.86,11.18s.02.04.03.06l.06.16c-.03-.08-.06-.15-.09-.22Zm-19.24-24.27c6.09,3.03,11.31,7.79,14.88,13.58,2.19,3.51,3.75,7.39,4.65,11.43-.15-.41-.29-.83-.49-1.21-.24-.5-.47-1-.71-1.49l-.85-1.42c-1.21-1.84-2.66-3.56-4.36-4.99-1.71-1.42-3.63-2.6-5.67-3.5-1.4-.57-2.84-1-4.32-1.3-.38-1.11-.88-2.21-1.5-3.38.02-.01.07-.04-.43-.86-1.49-2.46-3.7-4.74-5.98-6.28-.59-.36-1.15-.71-1.69-1.04-.57-.28-1.11-.55-1.61-.79-.25-.14-.51-.21-.75-.31-.24-.09-.47-.18-.69-.27-.22-.09-.43-.17-.62-.24-.2-.07-.39-.11-.56-.17-.46-.13-.92-.29-1.62-.47-.36-.06-.77-.14-1.28-.22-.25-.03-.53-.11-.83-.12-.31-.02-.64-.03-1-.05l.72.04c.24.01.48.02.72.06l1.43.22s.01-.08.01-.08c-.48-.08-.97-.16-1.48-.24-.25-.05-.51-.05-.77-.07-.26-.01-.52-.03-.79-.04-.27-.02-.53-.03-.8-.05-.27.01-.54.02-.81.03-.27.01-.54.02-.82.04-.27.01-.55.01-.82.06-2.18.22-4.29.87-6.08,1.61,0,0-.02-.05-.03-.07l-.88.42-.44.21c-.15.07-.29.14-.43.23-.22.11-.27.11-.18.04.09-.07.32-.25.68-.42.37-.18.84-.42,1.4-.71.57-.24,1.25-.48,1.97-.75.37-.12.75-.2,1.15-.31.4-.09.79-.23,1.21-.29.42-.06.83-.13,1.25-.2l.63-.1c.21-.01.42-.02.63-.03.42-.02.83-.04,1.24-.07l.3-.02c.1,0,.2,0,.3.01.2,0,.39.02.58.03.38.02.75.04,1.1.05.35,0,.67.09.98.12,0-.03.01-.08.01-.11-.33-.04-.65-.12-.98-.13l-.99-.05v-.05c2.98.14,5.67.85,8.13,2,2.46,1.16,4.73,2.78,6.74,4.98-.17-.18-.38-.41-.61-.67-.24-.24-.52-.48-.8-.74-.28-.25-.55-.5-.81-.73-.27-.2-.52-.39-.72-.54.02-.02.03-.04-.76-.64,1.64,1.13,3.3,2.66,4.7,4.41,1.43,1.73,2.47,3.74,3.23,5.58.18.46.21.45.06-.02-.12-.49-.53-1.41-1.2-2.75-.2-.32-.38-.63-.56-.93-.19-.29-.34-.6-.55-.85-.4-.52-.76-1.03-1.15-1.53-.42-.46-.84-.93-1.29-1.41-.47-.46-.99-.91-1.55-1.42l.03-.04c.37.34.79.72,1.23,1.12.23.19.43.42.64.66.21.23.42.46.63.7.44.45.78.98,1.15,1.45.18.24.36.47.52.7.15.24.29.46.42.68.27.42.03-.02-.22-.46-.06-.11-.12-.22-.18-.32-.06-.09-.11-.17-.15-.22-.07-.11-.06-.11.09.09.29.41.53.86.8,1.29l.4.64c.11.22.23.45.34.68-.3-.7-.77-1.38-1.2-2.11-.21-.37-.49-.71-.75-1.06-.27-.35-.52-.71-.8-1.05-1.17-1.33-2.42-2.58-3.65-3.47-.4-.31-.78-.64-1.1-.85-.32-.21-.52-.36-.51-.38-1.74-1.07-3.47-1.83-5.11-2.35,3.45.61,6.81,1.71,9.95,3.28Zm-25.09-2.69s.04-.02.06-.03l.16-.06c-.08.03-.15.06-.22.09Zm-21.48,14.98c.95-1.39,2-2.72.9-1.43,1.02-1.35,2.15-2.62,3.33-3.83.61-.58.99-.95,1.26-1.21.27-.25.42-.39.58-.54.31-.29.6-.6,1.95-1.64,4.16-3.19,9.02-5.44,14.13-6.59-.39.14-.78.28-1.15.47-.5.24-1,.47-1.49.71l-1.42.85c-1.84,1.21-3.56,2.66-4.99,4.36-1.42,1.71-2.6,3.63-3.5,5.67-.32.78-.6,1.58-.83,2.39-1.53.44-3,1.02-4.4,1.75-1.9,1.05-3.65,2.32-5.19,3.8-1.49,1.52-2.81,3.17-3.85,4.98-.01.02-.02.03-.03.05.51-1.64,1.11-3.24,1.84-4.78.83-1.75,1.8-3.43,2.86-5Zm-8.59,21.13s.08-.03.15-.03c0-.02.01-.05.03-.09,0,.07,0,.14,0,.2-.1-.02-.19-.04-.19-.09Zm27.38,34.38c-.17-.06-.27-.1-.27-.11t.02-.05c-.8-.27-1.99-.72-2.96-1.14-.48-.22-.91-.41-1.23-.56-.31-.15-.49-.26-.48-.27t-.02.05c-.38-.19-.75-.38-1.11-.57-.36-.2-.71-.41-1.05-.6-.17-.1-.34-.2-.51-.3-.17-.11-.33-.21-.49-.32-.33-.21-.65-.42-.96-.62-1.23-.86-2.38-1.72-3.41-2.63-2.07-1.8-3.8-3.68-5.32-5.71-.99-1.37-1.96-2.82-2.81-4.39-.84-1.57-1.62-3.23-2.26-4.97-.13-.37-.26-.74-.38-1.12.19.32.39.64.59.94,1.29,1.88,2.81,3.52,4.41,4.86,1.64,1.29,3.24,2.2,4.44,2.68.6.24,1.08.45,1.41.55.34.09.53.15.53.15.99.31,1.98.55,1.04.15-.24-.09-.52-.2-.83-.31-.16-.06-.32-.12-.49-.18-.08-.03-.17-.06-.26-.1-.08-.04-.17-.08-.25-.12-.34-.17-.7-.34-1.06-.52-.18-.09-.36-.18-.53-.26-.17-.09-.33-.2-.5-.3-.32-.2-.63-.4-.91-.57-.14-.09-.27-.17-.4-.25-.12-.08-.23-.17-.33-.25-.4-.32-.64-.52-.62-.54,0-.01.21.14.52.36.16.11.32.25.53.38.2.12.42.25.63.39.01-.02.19.05.47.17.28.12.63.33,1.05.47.82.32,1.73.72,2.21.86.22.07.69.22,1.3.42.46,1.84,1.12,3.62,1.99,5.28,1.05,1.9,2.32,3.65,3.8,5.19,1.52,1.49,3.17,2.81,4.98,3.85.18.13.42.24.67.37-.13-.04-.27-.08-.39-.11-.31-.08-.55-.18-.73-.24Z"/><path class="cls-1" d="m97.04,42.25c.31.3.62.59.91.87-.3-.3-.6-.59-.91-.87Z"/><path class="cls-1" d="m98.29,43.47c.34.36.66.69.91.96-.3-.33-.61-.64-.91-.96Z"/><path class="cls-1" d="m118.51,70.65s0-.08-.08-.08c-.46-.03-.99.03-1.22-.08-.08-.03-.15-.11-.38-.11h.23v-.08c-.3-.03-.68-.05-.99-.08v-.08h-.15c-.15-.19.68-.16,1.07-.19v-.11h-.15v-.05h.99s0-.05-.08-.05c.3,0,.68.03.99-.03.08-.03,0-.11-.23-.13h-.61v-.05c.15,0,.38.03.53,0,.08-.03-.15-.08-.08-.11.08,0,.15,0,.23-.03-.23,0-.53.03-.76,0-.08-.03-.15-.05-.15-.11-.38.03-.68-.05-.91-.19-.06-.04-.29-.03-.49-.03-1.28-.13-2.64-.08-3.84-.26-.08-.03-.23-.08-.3-.11-.61-.08-1.37-.05-1.98,0-.3.03-.53.32-.53.32-.08.05-.15.16-.08.21.15.03.53.03.53.13,0,.03-.08.03-.15.03,0,.11-.23.32-.3.32-.08.05-.53.21-.61.27-.23.08.46.48.76.56.15.05,0,.13,0,.21.15-.03.23.05.38.03,0,.03.46.05.68.05,0,0,.08-.03.3-.03.08,0,.08-.03.08-.05v.05c.08-.05.23,0,.3-.03v.05c.15-.05.3,0,.46-.03v.05c.08,0,.15,0,.15.03v.05c.08.03.23-.03.23.03v-.05c.3,0,.53.03.76.05.61.11,1.37.05,2.05,0,.08,0,.15-.05.08-.11h.23c.15,0,.08-.08.23-.08,1.22-.13,2.43,0,3.65-.08-.3-.03-.53-.08-.84-.05Z"/></svg>